<svg version="1.1" id="Layer_1" xmlns="http://www.w3.org/2000/svg" xmlns:xlink="http://www.w3.org/1999/xlink" x="0px" y="0px"
	 width="100%" viewBox="0 0 500 500" enable-background="new 0 0 500 500" xml:space="preserve">
<path fill="#000000" opacity="1.000000" stroke="none" 
	d="
M1.000000,194.000000 
	C1.000000,129.349350 1.000000,65.198708 1.000000,1.024032 
	C167.609024,1.024032 334.218048,1.024032 500.913544,1.024032 
	C500.913544,167.567368 500.913544,334.134796 500.913544,500.851135 
	C334.333435,500.851135 167.666733,500.851135 1.000000,500.851135 
	C1.000000,398.781830 1.000000,296.640900 1.000000,194.000000 
M429.000519,375.455353 
	C435.368561,364.158905 441.989380,352.995789 448.038239,341.530975 
	C455.008331,328.319977 459.653015,314.146637 462.628326,299.569031 
	C465.017365,287.863770 467.118317,275.969238 467.776489,264.071808 
	C468.766693,246.171692 467.299072,228.349548 464.168274,210.563812 
	C459.560150,184.385956 449.910278,160.109726 436.498108,137.597336 
	C426.685944,121.127548 414.095490,106.429764 399.873962,93.170364 
	C384.425812,78.767334 367.784180,66.281593 348.661407,57.375847 
	C336.122223,51.536152 323.412628,45.900352 310.359680,41.386887 
	C302.586121,38.698929 294.016846,38.249249 285.774048,36.999569 
	C278.249725,35.858822 270.697021,34.318817 263.132263,34.165478 
	C251.060135,33.920769 238.954956,34.447693 226.888931,35.108265 
	C220.505127,35.457756 214.046219,36.256767 207.849701,37.781456 
	C198.442642,40.096115 189.192139,43.086044 179.950912,46.027245 
	C162.817139,51.480408 146.955704,59.512272 131.961441,69.458145 
	C115.790482,80.184525 100.625320,92.019402 88.410278,107.206161 
	C80.376534,117.194374 71.917183,127.008965 65.243118,137.880310 
	C56.465919,152.177505 49.268734,167.417023 44.115993,183.538757 
	C38.999165,199.548126 35.028152,215.909103 34.311668,232.591171 
	C33.634510,248.357635 34.632698,264.300873 36.247574,280.027374 
	C37.512764,292.348450 39.947918,304.727844 43.520222,316.582001 
	C46.904358,327.811768 51.997314,338.608582 57.135174,349.209778 
	C66.092522,367.691925 78.144844,384.224548 92.003510,399.273865 
	C103.864120,412.153473 116.941383,423.900726 132.265808,432.620087 
	C144.676376,439.681427 157.360992,446.314606 170.237564,452.483276 
	C177.838242,456.124512 185.900375,459.031982 194.029739,461.272400 
	C201.416779,463.308197 209.154617,464.140503 216.776169,465.236450 
	C224.347305,466.325104 231.947891,467.612274 239.567993,467.876038 
	C257.438599,468.494751 275.341003,468.233490 292.829224,463.914764 
	C305.662262,460.745605 318.641632,457.749725 330.984741,453.145752 
	C341.215179,449.329803 350.549988,443.154297 360.393066,438.247711 
	C372.926392,432.000031 383.937469,423.522675 394.096466,414.142517 
	C406.688721,402.515686 418.996277,390.478485 429.000519,375.455353 
z"/>
<path fill="#F9FEFB" opacity="1.000000" stroke="none" 
	d="
M428.742432,375.719666 
	C418.996277,390.478485 406.688721,402.515686 394.096466,414.142517 
	C383.937469,423.522675 372.926392,432.000031 360.393066,438.247711 
	C350.549988,443.154297 341.215179,449.329803 330.984741,453.145752 
	C318.641632,457.749725 305.662262,460.745605 292.829224,463.914764 
	C275.341003,468.233490 257.438599,468.494751 239.567993,467.876038 
	C231.947891,467.612274 224.347305,466.325104 216.776169,465.236450 
	C209.154617,464.140503 201.416779,463.308197 194.029739,461.272400 
	C185.900375,459.031982 177.838242,456.124512 170.237564,452.483276 
	C157.360992,446.314606 144.676376,439.681427 132.265808,432.620087 
	C116.941383,423.900726 103.864120,412.153473 92.003510,399.273865 
	C78.144844,384.224548 66.092522,367.691925 57.135174,349.209778 
	C51.997314,338.608582 46.904358,327.811768 43.520222,316.582001 
	C39.947918,304.727844 37.512764,292.348450 36.247574,280.027374 
	C34.632698,264.300873 33.634510,248.357635 34.311668,232.591171 
	C35.028152,215.909103 38.999165,199.548126 44.115993,183.538757 
	C49.268734,167.417023 56.465919,152.177505 65.243118,137.880310 
	C71.917183,127.008965 80.376534,117.194374 88.410278,107.206161 
	C100.625320,92.019402 115.790482,80.184525 131.961441,69.458145 
	C146.955704,59.512272 162.817139,51.480408 179.950912,46.027245 
	C189.192139,43.086044 198.442642,40.096115 207.849701,37.781456 
	C214.046219,36.256767 220.505127,35.457756 226.888931,35.108265 
	C238.954956,34.447693 251.060135,33.920769 263.132263,34.165478 
	C270.697021,34.318817 278.249725,35.858822 285.774048,36.999569 
	C294.016846,38.249249 302.586121,38.698929 310.359680,41.386887 
	C323.412628,45.900352 336.122223,51.536152 348.661407,57.375847 
	C367.784180,66.281593 384.425812,78.767334 399.873962,93.170364 
	C414.095490,106.429764 426.685944,121.127548 436.498108,137.597336 
	C449.910278,160.109726 459.560150,184.385956 464.168274,210.563812 
	C467.299072,228.349548 468.766693,246.171692 467.776489,264.071808 
	C467.118317,275.969238 465.017365,287.863770 462.628326,299.569031 
	C459.653015,314.146637 455.008331,328.319977 448.038239,341.530975 
	C441.989380,352.995789 435.368561,364.158905 428.742432,375.719666 
M181.550598,55.983440 
	C177.664398,57.507412 173.689011,58.838394 169.906204,60.586121 
	C141.556122,73.684380 116.154358,90.666718 95.587723,114.675804 
	C81.452744,131.176682 69.556702,148.859009 60.992855,168.815598 
	C50.316898,193.694107 44.461899,219.617630 44.040314,246.702850 
	C43.971699,251.111374 44.656425,255.531754 44.995625,259.946442 
	C45.661392,268.611420 45.828827,277.350220 47.097622,285.926056 
	C49.942524,305.154907 56.136387,323.454254 64.511848,340.933594 
	C72.300423,357.188202 82.306870,372.027649 94.091820,385.753876 
	C105.075356,398.546692 117.361443,409.769623 131.028656,419.563324 
	C144.303955,429.076141 158.522614,436.832642 173.645416,443.012146 
	C196.241821,452.245453 219.828629,456.803040 244.095444,457.917053 
	C250.983765,458.233276 257.944977,457.554596 264.841095,456.963135 
	C274.268097,456.154602 283.874115,455.901154 293.030396,453.791260 
	C311.330017,449.574432 329.116364,443.708344 345.844421,434.761566 
	C371.478577,421.051514 393.777130,403.533661 411.950409,380.692474 
	C427.256439,361.454987 439.407043,340.547119 446.960266,317.160126 
	C455.016235,292.216431 460.099731,266.772369 456.982849,240.343933 
	C455.581116,228.458374 454.437927,216.499664 452.173218,204.768005 
	C448.238922,184.387573 440.228821,165.457275 429.903259,147.476181 
	C417.644928,126.129295 402.084229,107.454773 383.164520,91.846863 
	C366.554962,78.144714 348.084839,67.229111 328.100861,58.961628 
	C305.202820,49.488586 281.184235,45.036629 256.640625,44.230503 
	C243.939758,43.813339 231.028275,45.201450 218.442215,47.214058 
	C206.261978,49.161777 194.377136,52.956669 181.550598,55.983440 
z"/>
<path fill="#000000" opacity="1.000000" stroke="none" 
	d="
M181.956573,55.961834 
	C194.377136,52.956669 206.261978,49.161777 218.442215,47.214058 
	C231.028275,45.201450 243.939758,43.813339 256.640625,44.230503 
	C281.184235,45.036629 305.202820,49.488586 328.100861,58.961628 
	C348.084839,67.229111 366.554962,78.144714 383.164520,91.846863 
	C402.084229,107.454773 417.644928,126.129295 429.903259,147.476181 
	C440.228821,165.457275 448.238922,184.387573 452.173218,204.768005 
	C454.437927,216.499664 455.581116,228.458374 456.982849,240.343933 
	C460.099731,266.772369 455.016235,292.216431 446.960266,317.160126 
	C439.407043,340.547119 427.256439,361.454987 411.950409,380.692474 
	C393.777130,403.533661 371.478577,421.051514 345.844421,434.761566 
	C329.116364,443.708344 311.330017,449.574432 293.030396,453.791260 
	C283.874115,455.901154 274.268097,456.154602 264.841095,456.963135 
	C257.944977,457.554596 250.983765,458.233276 244.095444,457.917053 
	C219.828629,456.803040 196.241821,452.245453 173.645416,443.012146 
	C158.522614,436.832642 144.303955,429.076141 131.028656,419.563324 
	C117.361443,409.769623 105.075356,398.546692 94.091820,385.753876 
	C82.306870,372.027649 72.300423,357.188202 64.511848,340.933594 
	C56.136387,323.454254 49.942524,305.154907 47.097622,285.926056 
	C45.828827,277.350220 45.661392,268.611420 44.995625,259.946442 
	C44.656425,255.531754 43.971699,251.111374 44.040314,246.702850 
	C44.461899,219.617630 50.316898,193.694107 60.992855,168.815598 
	C69.556702,148.859009 81.452744,131.176682 95.587723,114.675804 
	C116.154358,90.666718 141.556122,73.684380 169.906204,60.586121 
	C173.689011,58.838394 177.664398,57.507412 181.956573,55.961834 
M178.121170,82.670067 
	C180.151016,85.015099 182.097092,87.442413 184.266220,89.650627 
	C184.850616,90.245544 186.373474,90.645348 187.000641,90.297188 
	C187.889526,89.803734 188.843185,88.563446 188.901276,87.590508 
	C189.120712,83.915611 188.989456,80.219772 188.989456,75.101532 
	C191.017380,80.313538 192.498352,84.119820 194.012177,88.010582 
	C195.822708,87.032516 197.286514,86.241753 198.501282,85.585533 
	C195.689774,78.213531 192.976395,71.098824 190.135757,63.650425 
	C188.080826,64.576431 186.180954,65.432564 183.793091,66.508591 
	C184.139694,71.742561 184.498734,77.164574 184.953918,84.038528 
	C180.666611,78.744492 177.268265,74.548180 173.652832,70.083794 
	C171.728058,70.945656 169.285507,72.039360 167.030075,73.049278 
	C170.151779,80.587311 173.068542,87.630463 175.957962,94.607605 
	C179.412338,94.076859 181.360229,93.121849 179.118668,89.394417 
	C177.993607,87.523590 177.629349,85.195251 177.270584,82.665443 
	C177.375000,82.519821 177.479401,82.374207 178.121170,82.670067 
M321.377319,110.048889 
	C292.275269,95.220505 261.430634,91.021698 229.263474,95.010162 
	C211.229553,97.246231 194.342300,102.907013 178.184082,111.279137 
	C157.033722,122.237877 139.515152,137.302078 125.306145,156.258209 
	C103.216743,185.727493 92.399017,218.889694 94.124275,255.768051 
	C94.601173,265.961945 95.994942,276.228119 98.149048,286.206146 
	C103.928879,312.979004 116.707069,336.330200 135.116394,356.478607 
	C150.446686,373.257111 168.691772,386.089813 189.695999,394.988464 
	C205.156601,401.538544 221.263931,405.834106 237.913208,406.798737 
	C256.746674,407.889862 275.404144,406.451599 293.889221,401.244446 
	C318.085358,394.428589 339.160217,382.428223 357.487396,365.736176 
	C373.213928,351.412750 385.439240,334.324982 394.139801,314.666748 
	C401.890198,297.155334 406.654846,278.924072 407.733795,259.991852 
	C408.403839,248.234970 407.695709,236.161987 405.753906,224.540344 
	C400.814056,194.975327 388.394196,168.551910 368.431946,146.100342 
	C355.307068,131.338760 340.112549,118.928352 321.377319,110.048889 
M72.813721,250.974030 
	C70.982529,250.186264 69.151337,249.398499 67.775627,248.806686 
	C72.429222,244.063019 83.329849,248.284897 83.617874,236.724075 
	C82.646454,236.501221 81.604118,236.117340 80.539993,236.042206 
	C74.972923,235.649231 69.388680,235.461761 63.833263,234.953217 
	C59.232170,234.532028 58.370617,236.761902 59.323563,240.932709 
	C63.357758,240.932709 67.427536,240.932709 71.497314,240.932709 
	C71.564590,241.236954 71.631859,241.541199 71.699127,241.845444 
	C67.526550,243.237732 63.353977,244.630035 59.166542,246.027283 
	C59.166542,247.745728 59.166542,249.677750 59.166542,251.268036 
	C60.811886,251.643692 62.235943,251.968811 63.890903,252.346649 
	C62.672379,253.016479 61.754082,253.521255 60.030670,254.468613 
	C64.528572,254.468613 68.016380,254.468613 71.504189,254.468613 
	C71.504684,255.045639 71.505173,255.622650 71.505669,256.199677 
	C67.390671,256.199677 63.275677,256.199677 59.285706,256.199677 
	C59.285706,258.248383 59.285706,259.985931 59.285706,261.118103 
	C67.264450,261.118103 74.997597,261.118103 82.801140,261.118103 
	C82.801140,258.406219 82.801140,256.297516 82.801140,254.270645 
	C79.616272,253.135910 76.623123,252.069473 72.813721,250.974030 
M385.035858,370.526398 
	C388.759521,373.359497 392.483154,376.192627 396.279999,379.081421 
	C397.287140,377.526947 398.208405,376.104950 399.104828,374.721344 
	C395.613953,371.886993 392.373260,369.255768 388.193756,365.862305 
	C394.396606,366.309540 399.123535,366.846100 403.852570,366.865234 
	C405.173584,366.870575 406.500793,365.348755 407.825195,364.527496 
	C407.158081,363.464050 406.694305,362.167358 405.788513,361.377716 
	C401.983246,358.060547 398.080444,354.851654 394.137634,351.697754 
	C392.782562,350.613800 391.206635,349.806000 389.582489,348.777618 
	C388.556915,350.026672 387.672760,351.103516 386.638428,352.363281 
	C390.161438,355.268921 393.363464,357.909790 397.596191,361.400757 
	C392.973236,360.844971 389.519135,360.280121 386.042969,360.053680 
	C382.540344,359.825500 378.570374,359.174286 378.167389,364.847626 
	C380.235840,366.525055 382.380646,368.264435 385.035858,370.526398 
M167.028290,407.594269 
	C168.620789,404.974731 170.213287,402.355194 171.872116,399.626556 
	C170.370422,398.654419 168.991806,397.761932 167.405548,396.735016 
	C164.954880,400.904388 162.686005,404.764435 160.511551,408.463867 
	C157.816635,402.227722 164.200485,393.855377 154.971848,389.008545 
	C150.789688,395.884125 146.731796,402.555450 142.526901,409.468414 
	C144.278824,410.468109 145.460480,411.142395 146.959991,411.998047 
	C149.465485,407.951752 151.862244,404.081024 154.988098,399.032867 
	C154.988098,406.230499 154.988098,411.964600 154.988098,417.551483 
	C156.827560,418.389709 158.352493,419.084595 159.763824,419.727722 
	C162.309082,415.693970 164.629196,412.017059 167.028290,407.594269 
M249.034470,420.909454 
	C249.520721,428.237030 250.006989,435.564606 250.481064,442.708679 
	C252.349747,442.708679 254.116409,442.708679 255.445953,442.708679 
	C255.445953,438.075714 255.445953,433.728546 255.445953,429.361725 
	C260.624756,433.628876 261.005188,442.440613 269.979584,443.274231 
	C269.979584,436.385925 270.190674,430.086151 269.909088,423.808472 
	C269.704376,419.245239 268.943634,418.900452 263.801025,419.563965 
	C264.126160,423.886078 264.453369,428.235809 264.847900,433.480316 
	C261.860718,429.125885 259.300751,425.659698 257.034149,422.011292 
	C255.002365,418.740845 252.652222,417.824341 249.034470,420.909454 
M345.151001,90.439308 
	C345.438416,95.204468 345.526855,99.995026 346.129669,104.719955 
	C346.320496,106.215958 347.615570,108.112343 348.920959,108.722794 
	C349.709595,109.091591 351.981842,107.658524 352.740601,106.486702 
	C356.305206,100.981529 359.576355,95.286369 362.978668,89.615112 
	C361.513062,88.701263 360.080994,87.808311 358.664703,86.925186 
	C356.205139,90.755508 353.937134,94.287529 351.627197,97.884865 
	C348.925903,91.592728 355.057343,83.500114 346.149231,79.081482 
	C342.787079,84.270393 339.590637,89.480576 336.102722,94.487717 
	C333.834900,97.743317 332.855072,100.283310 338.088440,101.588974 
	C340.359680,98.175552 342.676086,94.694252 345.151001,90.439308 
M435.449188,271.002838 
	C430.400238,270.216919 425.351318,269.431030 419.878906,268.579193 
	C420.064056,271.010651 420.171875,272.426819 420.274200,273.770630 
	C424.378143,274.362915 428.151276,274.907501 432.473724,275.531342 
	C427.729340,280.602509 417.735046,278.005402 417.116425,287.797821 
	C418.643494,288.173462 420.292664,288.696686 421.982208,288.972351 
	C426.780151,289.755280 431.790436,289.842804 436.341919,291.342712 
	C440.130371,292.591187 441.145844,291.520691 441.653442,287.310638 
	C436.964355,286.374512 432.194580,285.422302 427.105072,284.406250 
	C427.801941,283.899994 428.352997,283.300690 429.033905,283.037872 
	C432.916443,281.539551 437.011963,280.461975 440.648499,278.518097 
	C442.229706,277.672852 443.006775,275.156708 443.862946,273.269623 
	C444.023865,272.914978 442.913696,271.467560 442.245178,271.350311 
	C440.306610,271.010193 438.294312,271.090210 435.449188,271.002838 
M72.464600,221.983276 
	C77.435425,222.520767 81.355942,217.866013 81.949554,214.537033 
	C82.791100,209.817657 80.196938,203.826202 76.678337,202.167709 
	C73.315292,200.582520 66.288124,202.684845 63.678268,205.807800 
	C58.892319,211.534637 62.893963,222.065842 72.464600,221.983276 
M429.543304,221.981964 
	C432.530548,220.648712 436.170441,219.974274 438.344635,217.820328 
	C441.253418,214.938675 440.392792,208.367783 437.724609,205.257553 
	C435.314697,202.448395 428.717316,200.759399 425.491302,202.125717 
	C421.965668,203.618927 419.175995,209.340820 420.088440,214.209854 
	C420.947968,218.796265 423.831177,221.616928 429.543304,221.981964 
M263.422791,78.987869 
	C268.335785,79.110397 272.634430,77.664032 274.554230,72.847664 
	C277.009735,66.687317 276.320038,59.737637 272.073578,57.884609 
	C267.262939,55.785374 261.718384,55.352856 256.470245,54.309807 
	C256.167114,54.249569 255.306412,55.211212 255.301224,55.703556 
	C255.224304,63.016045 255.248123,70.329597 255.248123,77.850266 
	C257.123993,78.143646 259.829712,78.566818 263.422791,78.987869 
M85.414536,305.044189 
	C92.636818,298.730560 87.255470,291.821686 86.623131,284.632202 
	C80.189667,286.300964 74.137520,287.938782 68.040253,289.386505 
	C67.008621,289.631439 65.782753,289.058319 64.375885,288.816650 
	C62.735802,291.686066 64.701210,301.474823 68.694237,304.985992 
	C70.480110,306.556305 73.246292,307.794250 75.562889,307.786438 
	C78.669899,307.775970 81.772346,306.411743 85.414536,305.044189 
M174.960403,404.450043 
	C172.203659,410.709229 169.446899,416.968445 166.674683,423.262756 
	C168.375015,424.142578 169.601913,424.906708 170.922592,425.437592 
	C175.725647,427.368164 180.605148,429.756226 185.731735,426.682922 
	C189.909073,424.178619 192.559799,416.197205 190.997726,411.813690 
	C189.594528,407.875916 180.334290,401.764374 176.414673,402.304688 
	C175.905457,402.374847 175.500259,403.199524 174.960403,404.450043 
M317.993134,73.535263 
	C316.860504,75.662682 315.552185,77.716881 314.629089,79.931641 
	C312.131927,85.922874 314.916443,91.616882 320.947632,93.474777 
	C323.798157,94.352867 326.548248,95.557022 329.571228,96.699379 
	C331.301361,92.844322 333.167297,88.686760 334.936523,84.744637 
	C332.486938,83.614944 330.330933,82.551826 328.120422,81.617775 
	C325.039368,80.315887 324.743652,80.547089 323.516510,84.786270 
	C325.062347,85.429367 326.583710,86.062286 328.105072,86.695206 
	C328.168732,87.121223 328.232391,87.547241 328.296051,87.973259 
	C326.746948,88.404266 325.113586,89.389305 323.663574,89.168739 
	C317.909302,88.293457 318.069550,83.622246 321.685089,77.893150 
	C324.222137,73.872986 327.650208,74.044075 331.048553,77.456818 
	C332.443146,78.857307 334.492340,79.605972 336.243744,80.651146 
	C336.818573,79.928131 337.393402,79.205124 337.968262,78.482109 
	C335.690125,76.003716 333.843414,72.674728 331.031586,71.248596 
	C326.932983,69.169823 322.191589,68.793434 317.993134,73.535263 
M202.528931,430.017395 
	C202.079117,432.191559 201.629318,434.365692 201.144028,436.711426 
	C205.757538,437.465057 210.374969,438.866913 214.967178,438.788696 
	C219.628342,438.709290 222.935287,434.338409 223.969040,428.850464 
	C225.624969,420.059509 222.718933,417.482086 206.232971,413.230743 
	C205.143539,418.583893 204.055847,423.928467 202.528931,430.017395 
M168.166611,97.294067 
	C169.703903,92.038406 167.158890,84.527496 162.980743,81.989517 
	C156.472321,78.036018 149.746140,80.036530 145.996140,87.041100 
	C143.611069,91.496124 147.176712,100.371544 152.430115,103.056229 
	C158.430130,106.122459 162.317657,104.874741 168.166611,97.294067 
M133.973389,110.534828 
	C135.827560,109.049072 137.681732,107.563316 139.678040,105.963676 
	C142.014908,108.786255 144.188202,111.411263 146.460999,114.156464 
	C147.822281,112.632866 149.007156,111.306702 150.143585,110.034752 
	C145.122421,103.900299 140.314850,98.026817 135.412094,92.037033 
	C133.848114,93.197563 132.416794,94.259659 131.103165,95.234421 
	C132.882599,97.600494 134.531647,99.793198 136.400558,102.278252 
	C133.944397,104.245712 131.690063,106.051498 129.231995,108.020485 
	C127.631638,105.780205 126.039864,103.551949 124.303490,101.121262 
	C122.857605,102.266014 121.280937,103.514305 119.609520,104.837616 
	C124.933998,111.253159 129.889511,117.224121 135.200943,123.623947 
	C136.492493,121.970757 137.509399,120.669083 138.278763,119.684303 
	C136.728302,116.911766 135.086517,113.975906 133.973389,110.534828 
M372.875488,98.370766 
	C366.650909,97.716942 361.850281,100.837105 358.911682,107.377487 
	C357.116333,111.373360 357.537109,114.974785 360.656586,118.147766 
	C363.976685,121.524788 367.641266,123.868370 372.643097,121.972534 
	C377.713745,120.050652 382.503143,113.483414 381.923523,108.501938 
	C381.346649,103.544388 378.334015,100.298103 372.875488,98.370766 
M210.054932,59.036983 
	C204.134247,59.201759 203.297791,60.325771 202.937073,66.246780 
	C202.559372,72.446648 201.641388,78.613586 200.925217,85.106308 
	C202.742493,84.673813 204.836670,84.175430 207.067596,83.644493 
	C207.067596,81.686859 207.067596,80.059143 207.067596,78.249557 
	C210.893005,78.239014 215.346481,74.065514 217.584015,80.687340 
	C217.726059,81.107666 219.753647,81.050819 220.877518,80.941940 
	C222.565979,80.778381 224.230957,80.372345 225.103729,80.214493 
	C223.211060,77.881477 220.810699,75.322029 218.879089,72.447578 
	C216.015259,68.185829 213.483673,63.700802 210.054932,59.036983 
M100.967155,364.538513 
	C104.457832,360.041199 108.214920,355.715881 111.291039,350.950958 
	C112.331978,349.338531 112.412643,346.192108 111.498512,344.539978 
	C110.845184,343.359192 107.628563,342.766907 105.854523,343.183777 
	C99.206001,344.746033 92.680290,346.830902 86.108475,348.719879 
	C87.457619,353.255493 90.346848,353.912964 94.171608,351.801727 
	C95.817635,354.219849 97.312614,356.416046 98.996399,358.889618 
	C97.938271,359.820312 96.119995,360.697235 96.116508,361.581238 
	C96.110306,363.156982 97.201042,364.737030 97.833046,366.315277 
	C98.698875,365.891785 99.564705,365.468262 100.967155,364.538513 
M139.039185,380.480560 
	C132.986938,384.278381 126.934700,388.076202 120.558289,392.077454 
	C123.366302,393.402985 125.214607,397.023712 128.399353,393.348511 
	C128.732513,392.964050 130.518372,393.462097 131.367096,393.980988 
	C133.014954,394.988525 134.475800,396.301849 135.976501,397.459473 
	C134.016068,403.071869 134.016068,403.071869 138.643021,406.089264 
	C141.120895,399.285553 143.645615,392.583984 145.954865,385.808960 
	C146.393143,384.523102 146.503403,382.057068 145.855453,381.673950 
	C144.065933,380.615906 142.404846,377.729706 139.039185,380.480560 
M298.007233,415.664795 
	C297.529999,423.021759 297.052795,430.378754 296.543884,438.224579 
	C298.912720,437.482727 300.395142,437.018433 301.877563,436.554169 
	C301.556549,436.287201 301.235565,436.020203 300.914551,435.753204 
	C302.187714,433.844757 303.073975,431.277283 304.854034,430.232300 
	C306.330322,429.365601 309.939362,429.499817 310.724976,430.569855 
	C313.338348,434.129425 315.433838,433.244751 318.162811,431.067749 
	C314.005402,425.318817 309.960022,419.840485 306.044861,414.270630 
	C303.384430,410.485809 301.041443,410.587555 298.007233,415.664795 
M299.022339,64.690071 
	C295.307556,70.246704 291.592773,75.803337 287.973480,81.217110 
	C292.242950,85.149162 294.023132,81.441437 295.848175,78.936577 
	C300.487427,80.026131 305.923920,79.808060 304.101898,86.639091 
	C305.902649,87.143700 307.268280,87.526367 309.423828,88.130394 
	C308.926819,81.045662 308.402557,74.364288 308.020142,67.674812 
	C307.892975,65.450500 308.485596,63.116352 305.567566,62.102055 
	C302.951538,61.192745 300.980743,61.912258 299.022339,64.690071 
M80.006775,273.630096 
	C80.351837,276.344940 80.696907,279.059814 81.090820,282.158966 
	C82.846222,281.871521 84.183998,281.652466 85.526825,281.432587 
	C84.851143,275.973297 84.243271,271.061920 83.576103,265.671417 
	C75.160622,266.759827 67.027756,267.811707 59.434063,268.793823 
	C60.561584,274.985291 61.469196,279.969177 62.354153,284.828613 
	C65.403297,285.249237 67.286949,284.977631 66.056488,281.387787 
	C65.647598,280.194885 66.043602,278.741974 65.978394,277.412537 
	C65.754242,272.842621 65.738510,272.843384 70.714844,273.440399 
	C71.415985,281.997986 71.415985,281.997986 76.175461,281.331177 
	C75.863892,278.341888 75.550873,275.338684 75.180077,271.781128 
	C76.952156,272.137939 78.452492,272.440033 80.006775,273.630096 
M231.536621,441.991791 
	C235.544800,442.364288 239.552994,442.736786 243.779999,443.129608 
	C243.779999,441.175903 243.779999,439.780731 243.779999,437.992920 
	C240.500046,437.992920 237.415115,437.992920 234.168976,437.992920 
	C234.168976,435.846405 234.168976,434.094452 234.168976,431.824585 
	C236.428848,432.248199 238.450989,433.009430 240.399460,432.852966 
	C241.620300,432.754944 242.730316,431.276672 243.890060,430.417694 
	C242.906357,429.614532 242.007477,428.294952 240.921158,428.116486 
	C238.714203,427.753967 236.405914,428.008148 233.811234,428.008148 
	C234.496536,425.984131 234.994217,424.514282 235.599579,422.726379 
	C237.964584,423.162750 240.157761,423.734528 242.384750,423.940521 
	C246.061874,424.280701 246.285034,422.061310 245.764664,419.341461 
	C240.501312,418.876251 235.498077,418.434021 229.950790,417.943726 
	C229.282913,425.211243 228.541046,432.138794 228.134735,439.085999 
	C228.081116,440.002686 229.740005,441.019562 231.536621,441.991791 
M382.389038,132.928925 
	C381.304504,130.501175 380.219940,128.073425 379.012665,125.370956 
	C378.122711,125.370956 376.593842,125.370956 375.077606,125.370956 
	C374.971588,131.921692 377.636963,136.846588 382.062988,138.557983 
	C385.463898,139.873001 388.242035,138.570145 390.386902,136.060928 
	C394.945679,130.727783 389.537537,126.882881 388.225830,122.066429 
	C391.714020,119.788589 393.139435,121.564774 394.107361,125.109886 
	C394.409790,126.217392 395.795563,127.029099 396.685394,127.976212 
	C397.453613,126.751671 399.165222,125.011368 398.826599,124.391983 
	C397.368256,121.724632 395.631927,119.022423 393.383575,117.022232 
	C390.717682,114.650566 387.688202,114.990532 384.892944,117.574409 
	C382.010620,120.238777 382.638062,123.053314 384.016876,126.018265 
	C384.886353,127.887978 385.863800,129.707474 387.141479,132.240784 
	C385.625092,132.677277 384.292267,133.060913 382.389038,132.928925 
M228.048599,62.371841 
	C230.374878,57.150394 234.209229,61.311584 237.616486,60.842323 
	C238.136658,59.539539 238.712845,58.096466 239.474884,56.187931 
	C236.426865,55.747131 233.840622,54.890083 231.357773,55.125175 
	C227.453018,55.494904 223.391342,56.393280 223.024796,61.547195 
	C222.683929,66.339920 224.384094,67.810440 230.446396,69.075172 
	C232.383591,69.479332 234.146729,70.763985 235.911972,71.780380 
	C235.983688,71.821671 235.248871,73.919952 234.907547,73.914673 
	C232.853104,73.882858 230.794083,73.574348 228.757843,73.232147 
	C227.990356,73.103157 227.279587,72.636734 226.477737,72.296455 
	C223.076447,75.556320 223.339249,77.955711 227.755554,78.792297 
	C230.721039,79.354050 234.370865,79.508278 236.897385,78.229897 
	C239.168549,77.080727 241.458649,73.838043 241.699234,71.323509 
	C242.031326,67.852737 239.837448,65.066650 235.436340,64.904312 
	C233.122879,64.818977 230.848160,63.683765 228.048599,62.371841 
M90.053879,177.513062 
	C89.011597,178.681763 87.799553,179.743774 86.978004,181.051178 
	C86.254051,182.203247 85.966362,183.629486 85.486023,184.934647 
	C87.090431,185.002014 89.252625,185.753555 90.183411,184.994690 
	C92.135628,183.403015 93.753059,181.181686 94.943459,178.921570 
	C97.210457,174.617386 95.896797,170.649689 91.891273,168.423569 
	C88.915283,166.769653 84.456673,168.271484 82.038940,171.633530 
	C80.851822,173.284286 79.487534,174.807632 77.920921,176.736465 
	C73.696510,171.139145 78.928139,169.688187 81.953773,166.289291 
	C79.563164,165.515610 77.494278,164.064636 76.148949,164.563782 
	C72.729462,165.832550 70.458366,173.420761 71.982971,176.756699 
	C74.297195,181.820404 78.710915,182.662125 82.699959,178.784027 
	C84.130363,177.393417 85.428146,175.846985 86.971848,174.601440 
	C87.632309,174.068558 89.259125,173.662430 89.581535,174.007401 
	C90.226021,174.696991 90.273720,175.944321 90.053879,177.513062 
M402.002625,327.705872 
	C400.267334,332.382263 402.095642,338.242493 406.490204,340.753235 
	C412.534393,344.206451 418.403809,345.022736 422.895966,339.691040 
	C426.756165,335.109436 427.037720,332.006775 422.599213,325.500366 
	C421.282043,326.606842 420.011292,327.674316 418.740570,328.741791 
	C419.182251,328.875702 419.623901,329.009583 420.065582,329.143494 
	C420.065582,330.965912 420.368134,332.852051 420.000519,334.597015 
	C419.307190,337.887848 416.410095,338.936096 413.924561,337.834930 
	C410.994385,336.536865 408.623749,333.975677 406.010498,331.962189 
	C407.595062,329.963562 409.310974,328.052185 410.717499,325.935272 
	C411.637665,324.550385 412.109650,322.867645 412.782379,321.318359 
	C411.537781,321.206543 409.924011,320.544006 409.117035,321.084961 
	C406.586823,322.781128 404.360565,324.930695 402.002625,327.705872 
M421.601135,168.970520 
	C425.593323,170.028488 424.832947,173.207016 425.058624,176.153885 
	C425.159515,177.471313 426.434387,178.698822 427.176514,179.967133 
	C428.113434,179.076965 429.622437,178.332275 429.891937,177.272385 
	C431.354797,171.519180 428.497986,165.288193 422.551758,163.241470 
	C417.311859,161.437866 408.825653,165.618011 406.601013,170.922180 
	C404.554718,175.801147 407.109650,182.474976 412.212952,184.960724 
	C413.527740,185.601151 415.554688,186.027573 416.672119,185.441666 
	C417.616028,184.946762 417.716949,182.844101 418.190948,181.453018 
	C417.667419,181.668381 417.143860,181.883743 416.620331,182.099106 
	C414.748108,180.202545 412.023193,178.612152 411.206207,176.336700 
	C410.019775,173.032425 412.762787,170.957520 415.693237,169.821106 
	C417.376099,169.168503 419.216064,168.921005 421.601135,168.970520 
M90.872139,326.010498 
	C97.299782,326.189514 98.992226,328.741302 97.262558,335.718231 
	C99.514503,338.102020 102.344841,338.373444 102.710556,334.912292 
	C103.051178,331.688660 101.911896,327.853607 100.244423,324.969879 
	C97.022812,319.398376 90.766624,319.910522 84.184799,323.291443 
	C80.114143,325.382446 79.016258,328.484741 78.874840,332.827576 
	C78.723442,337.476654 81.122765,340.473877 84.386658,342.619934 
	C88.496597,345.322296 91.032082,343.417419 90.824646,339.418304 
	C88.418098,338.137054 85.984917,337.546753 84.815323,336.000580 
	C83.842247,334.714264 83.554871,331.765564 84.395813,330.519989 
	C85.643394,328.672028 88.156052,327.678131 90.872139,326.010498 
M343.937286,408.382080 
	C347.820740,413.675812 352.867615,414.026367 357.302094,412.132996 
	C362.489838,409.917999 364.220551,406.473907 363.628693,400.222351 
	C362.232971,400.222351 360.816223,400.222351 359.399506,400.222351 
	C359.720886,400.607239 360.042236,400.992126 360.363617,401.377014 
	C358.306183,403.588776 356.615845,406.943817 354.106934,407.749420 
	C350.156006,409.018066 347.674103,405.227539 346.723114,402.086853 
	C344.333527,394.195099 349.429871,393.497284 355.470276,394.417542 
	C355.876617,392.867462 356.219666,391.558868 356.560150,390.260010 
	C348.356903,386.764160 340.756622,391.516785 341.110046,400.096161 
	C341.217743,402.711700 342.572296,405.275909 343.937286,408.382080 
M427.344208,250.101837 
	C427.533875,248.583038 427.723511,247.064240 427.913177,245.545441 
	C426.644623,245.837173 425.119293,245.775986 424.150970,246.480423 
	C419.417389,249.923981 420.040527,257.912537 423.936401,262.312439 
	C426.589050,265.308289 436.609467,266.043732 440.229004,263.918732 
	C444.285950,261.536835 446.550323,256.003021 444.804199,250.449203 
	C444.131897,248.310776 441.540466,246.641708 439.508911,245.202972 
	C439.188293,244.975952 437.194000,247.112289 437.111633,247.182739 
	C438.434235,250.453064 440.270813,252.867783 440.148499,255.178818 
	C439.953918,258.855621 435.283722,260.872253 431.256439,259.707336 
	C425.841187,258.140991 425.058838,256.549011 427.344208,250.101837 
M281.009430,434.350708 
	C281.522491,436.534943 282.035583,438.719208 282.550964,440.913208 
	C286.849670,441.209229 287.484375,438.565491 286.961029,435.261566 
	C286.219574,430.580078 285.285339,425.929108 284.475922,421.497589 
	C286.754822,420.900818 288.880798,420.344086 291.081390,419.767792 
	C290.465912,418.000336 290.002136,416.668549 289.644897,415.642700 
	C283.025452,416.492249 276.598145,417.317139 270.153625,418.144257 
	C271.411743,420.373138 272.480865,422.267151 273.536957,424.138092 
	C275.356171,423.194427 276.837952,422.425812 278.714905,421.452179 
	C279.565582,425.912140 280.287109,429.694855 281.009430,434.350708 
M113.020470,123.516479 
	C116.565773,127.165611 120.111084,130.814743 123.157326,133.950211 
	C125.150810,132.525375 126.540527,131.532089 126.860596,131.303314 
	C122.696472,126.433197 118.666199,121.719604 114.619789,116.987137 
	C118.827400,112.365425 118.827400,112.365425 115.140434,109.258537 
	C111.776642,112.665833 108.379730,116.061943 105.034760,119.508446 
	C102.105759,122.526352 102.131516,122.551353 106.280342,126.179718 
	C107.734123,124.560356 109.224144,122.900627 110.854721,121.084343 
	C111.443871,121.760674 111.988945,122.386398 113.020470,123.516479 
M413.478882,145.922638 
	C413.486084,144.283173 414.132538,142.228394 413.385712,141.078842 
	C410.690186,136.929962 407.525604,133.085800 404.588654,129.193542 
	C403.316406,130.114380 402.167511,130.945938 401.027405,131.771118 
	C402.110291,133.690445 403.169495,135.567841 404.244263,137.472839 
	C398.944336,141.273453 394.100739,144.746826 389.285217,148.200073 
	C390.815613,152.308701 393.074310,152.494354 396.283112,149.995468 
	C399.903442,147.176147 403.738861,144.633057 406.959625,142.340729 
	C409.262787,143.795547 411.008484,144.898254 413.478882,145.922638 
M82.238518,159.948624 
	C83.438965,158.320511 84.639412,156.692413 85.859978,155.037018 
	C91.163101,158.173386 96.497597,161.328308 101.888680,164.516693 
	C103.080925,162.779816 103.920921,161.556122 104.882683,160.155029 
	C99.411064,156.797607 94.137245,153.561569 88.834358,150.307693 
	C89.899895,148.160980 90.812004,146.323395 91.701950,144.530441 
	C90.563202,143.744278 89.434662,142.965164 88.002777,141.976624 
	C85.103317,146.751831 82.135666,151.331314 79.599861,156.138611 
	C79.207153,156.883102 80.792290,158.670898 82.238518,159.948624 
M118.030945,364.444000 
	C119.769867,363.073273 121.508789,361.702576 123.334961,360.263092 
	C122.032928,358.518433 121.034019,357.179962 119.975365,355.761414 
	C113.794090,361.078827 107.863693,366.180481 101.946594,371.270630 
	C105.507385,375.711914 108.808037,379.828735 112.240051,384.109406 
	C113.228462,382.652618 114.177917,381.253265 115.083450,379.918610 
	C113.004189,377.301331 111.076401,374.874756 109.074493,372.354858 
	C111.864334,369.919952 114.697845,367.446930 118.030945,364.444000 
M380.395874,394.971497 
	C381.478729,394.224701 382.561554,393.477936 384.032288,392.463654 
	C382.306183,390.665771 381.329651,389.648682 380.257629,388.532074 
	C377.301361,390.855194 374.806946,392.815399 372.135498,394.914734 
	C368.163757,390.129883 364.235504,385.397400 360.320221,380.680573 
	C358.545776,381.945740 357.269867,382.855469 355.809235,383.896881 
	C360.976257,389.986389 366.047852,395.963440 371.224091,402.063782 
	C374.202148,399.581940 376.932648,397.306396 380.395874,394.971497 
M322.007965,427.398132 
	C322.893402,427.955139 324.020996,429.181122 324.625549,428.962280 
	C329.063080,427.355927 333.395935,425.460449 337.844971,423.621674 
	C334.286652,416.260468 330.291107,422.816528 326.007080,422.877930 
	C323.537445,417.405792 320.946594,411.665070 318.264526,405.722229 
	C316.609436,406.760651 315.274475,407.598206 313.598114,408.649963 
	C316.448639,414.776276 319.207001,420.704529 322.007965,427.398132 
M373.022217,374.515106 
	C377.493958,379.175446 381.965698,383.835754 386.437439,388.496094 
	C387.073792,388.407074 387.710144,388.318054 388.346466,388.229034 
	C388.618622,386.390503 389.805298,383.734039 389.012695,382.847717 
	C384.290436,377.567596 379.111023,372.696381 373.830475,367.434113 
	C372.403961,369.066650 371.315826,370.311920 369.976654,371.844513 
	C370.755219,372.501831 371.647552,373.255157 373.022217,374.515106 
M80.521477,313.000458 
	C77.394234,314.193024 74.266991,315.385590 70.949768,316.650574 
	C71.615005,318.292847 72.316704,320.025085 73.064919,321.872192 
	C80.553749,318.950684 87.752426,316.142365 95.050529,313.295258 
	C94.464310,309.857391 93.552589,307.564056 89.372734,309.883148 
	C86.887550,311.262024 84.023659,311.958282 80.521477,313.000458 
M409.547119,355.021271 
	C410.779724,355.737061 412.012360,356.452850 413.244965,357.168610 
	C413.688843,357.002899 414.132690,356.837158 414.576569,356.671448 
	C414.126404,354.700531 414.342957,351.807648 413.111511,350.917175 
	C407.562408,346.904480 401.602814,343.459442 395.474731,339.611023 
	C394.510040,341.359894 393.695068,342.837280 392.858276,344.354309 
	C398.439850,347.861481 403.719604,351.179047 409.547119,355.021271 
M415.967255,156.530518 
	C418.593445,154.524902 422.912781,152.879547 417.587921,149.285309 
	C412.025818,152.401291 406.391418,155.412460 400.909149,158.679001 
	C397.126831,160.932648 397.220917,161.090530 400.461853,165.330734 
	C405.380035,162.564026 410.360504,159.762283 415.967255,156.530518 
M282.949799,61.332298 
	C281.657623,67.741173 280.365448,74.150040 279.045349,80.697525 
	C281.080994,80.697525 282.963898,80.697525 284.667786,80.697525 
	C286.069519,73.042038 287.413147,65.703926 288.754242,58.379631 
	C286.888062,57.935764 285.190826,57.532078 283.273102,57.075954 
	C283.178833,58.227497 283.087158,59.347237 282.949799,61.332298 
M434.718140,303.940521 
	C436.288788,302.790497 437.859406,301.640472 439.430054,300.490448 
	C432.068207,297.363403 425.287964,295.514191 418.454681,293.887756 
	C417.451660,293.648987 416.196625,294.468964 415.058197,294.799103 
	C415.815674,296.192078 416.279419,298.460754 417.380310,298.830017 
	C422.832245,300.658661 428.452393,301.985687 434.718140,303.940521 
M430.071930,318.034393 
	C428.610565,318.609955 426.921112,318.918579 425.792206,319.883209 
	C425.291748,320.310822 425.648438,322.919800 426.092590,323.063324 
	C427.706970,323.584869 429.522888,323.482605 431.275970,323.616577 
	C432.243225,324.734863 433.455597,326.136475 434.667938,327.538116 
	C436.464386,322.505646 434.257324,320.060669 430.071930,318.034393 
M111.540100,149.948837 
	C111.084007,148.314178 110.791626,146.593658 110.020729,145.124146 
	C109.882156,144.860001 107.349136,145.265472 106.689835,146.026917 
	C106.038513,146.779175 105.898613,149.195816 106.342148,149.445084 
	C107.665344,150.188782 109.384872,150.227325 111.540100,149.948837 
M442.218719,240.950073 
	C443.331268,239.247498 444.443817,237.544922 445.934448,235.263763 
	C442.613831,235.263763 440.874023,235.263763 437.578644,235.263763 
	C439.237457,237.756409 440.309906,239.367966 442.218719,240.950073 
z"/>
<path fill="#F7FEFA" opacity="1.000000" stroke="none" 
	d="
M321.685303,110.280388 
	C340.112549,118.928352 355.307068,131.338760 368.431946,146.100342 
	C388.394196,168.551910 400.814056,194.975327 405.753906,224.540344 
	C407.695709,236.161987 408.403839,248.234970 407.733795,259.991852 
	C406.654846,278.924072 401.890198,297.155334 394.139801,314.666748 
	C385.439240,334.324982 373.213928,351.412750 357.487396,365.736176 
	C339.160217,382.428223 318.085358,394.428589 293.889221,401.244446 
	C275.404144,406.451599 256.746674,407.889862 237.913208,406.798737 
	C221.263931,405.834106 205.156601,401.538544 189.695999,394.988464 
	C168.691772,386.089813 150.446686,373.257111 135.116394,356.478607 
	C116.707069,336.330200 103.928879,312.979004 98.149048,286.206146 
	C95.994942,276.228119 94.601173,265.961945 94.124275,255.768051 
	C92.399017,218.889694 103.216743,185.727493 125.306145,156.258209 
	C139.515152,137.302078 157.033722,122.237877 178.184082,111.279137 
	C194.342300,102.907013 211.229553,97.246231 229.263474,95.010162 
	C261.430634,91.021698 292.275269,95.220505 321.685303,110.280388 
M332.625031,375.047638 
	C346.943848,366.128784 358.868317,354.673218 369.224945,341.382263 
	C386.879578,318.725647 397.113251,292.979858 399.783844,264.639801 
	C401.711578,244.183197 399.550903,223.713928 392.937531,204.053055 
	C386.874756,186.029007 377.969086,169.585785 365.587585,154.931763 
	C353.402618,140.510345 339.393402,128.504715 322.900970,119.407028 
	C298.883942,106.158577 273.076111,100.181931 245.714478,101.062653 
	C239.865601,101.250923 234.052444,102.396400 228.210068,102.970993 
	C215.401810,104.230682 203.266449,108.078430 191.593460,113.174011 
	C167.132477,123.851936 147.078613,140.160263 130.937973,161.456696 
	C114.522743,183.115433 104.872963,207.587036 102.291748,234.356033 
	C100.767357,250.165054 101.297318,266.259552 104.903358,282.080505 
	C110.730042,307.644104 122.073265,330.369812 139.472809,349.842194 
	C153.727295,365.794891 170.693008,378.271271 190.438278,386.971771 
	C209.898941,395.546875 230.254303,399.893738 251.345123,399.790466 
	C261.854126,399.739044 272.450897,397.873566 282.832336,395.903229 
	C300.577271,392.535339 316.933228,385.443146 332.625031,375.047638 
z"/>
<path fill="#F6FEF9" opacity="1.000000" stroke="none" 
	d="
M73.221848,250.988525 
	C76.623123,252.069473 79.616272,253.135910 82.801140,254.270645 
	C82.801140,256.297516 82.801140,258.406219 82.801140,261.118103 
	C74.997597,261.118103 67.264450,261.118103 59.285706,261.118103 
	C59.285706,259.985931 59.285706,258.248383 59.285706,256.199677 
	C63.275677,256.199677 67.390671,256.199677 71.505669,256.199677 
	C71.505173,255.622650 71.504684,255.045639 71.504189,254.468613 
	C68.016380,254.468613 64.528572,254.468613 60.030670,254.468613 
	C61.754082,253.521255 62.672379,253.016479 63.890903,252.346649 
	C62.235943,251.968811 60.811886,251.643692 59.166542,251.268036 
	C59.166542,249.677750 59.166542,247.745728 59.166542,246.027283 
	C63.353977,244.630035 67.526550,243.237732 71.699127,241.845444 
	C71.631859,241.541199 71.564590,241.236954 71.497314,240.932709 
	C67.427536,240.932709 63.357758,240.932709 59.323563,240.932709 
	C58.370617,236.761902 59.232170,234.532028 63.833263,234.953217 
	C69.388680,235.461761 74.972923,235.649231 80.539993,236.042206 
	C81.604118,236.117340 82.646454,236.501221 83.617874,236.724075 
	C83.329849,248.284897 72.429222,244.063019 67.775627,248.806686 
	C69.151337,249.398499 70.982529,250.186264 73.221848,250.988525 
z"/>
<path fill="#F5FEF9" opacity="1.000000" stroke="none" 
	d="
M176.920990,83.073822 
	C177.629349,85.195251 177.993607,87.523590 179.118668,89.394417 
	C181.360229,93.121849 179.412338,94.076859 175.957962,94.607605 
	C173.068542,87.630463 170.151779,80.587311 167.030075,73.049278 
	C169.285507,72.039360 171.728058,70.945656 173.652832,70.083794 
	C177.268265,74.548180 180.666611,78.744492 184.953918,84.038528 
	C184.498734,77.164574 184.139694,71.742561 183.793091,66.508591 
	C186.180954,65.432564 188.080826,64.576431 190.135757,63.650425 
	C192.976395,71.098824 195.689774,78.213531 198.501282,85.585533 
	C197.286514,86.241753 195.822708,87.032516 194.012177,88.010582 
	C192.498352,84.119820 191.017380,80.313538 188.989456,75.101532 
	C188.989456,80.219772 189.120712,83.915611 188.901276,87.590508 
	C188.843185,88.563446 187.889526,89.803734 187.000641,90.297188 
	C186.373474,90.645348 184.850616,90.245544 184.266220,89.650627 
	C182.097092,87.442413 180.151016,85.015099 177.660294,82.228943 
	C176.865005,81.654953 176.530609,81.522087 176.196198,81.389221 
	C176.437790,81.950760 176.679398,82.512291 176.920990,83.073822 
z"/>
<path fill="#F5FEF9" opacity="1.000000" stroke="none" 
	d="
M384.780640,370.265076 
	C382.380646,368.264435 380.235840,366.525055 378.167389,364.847626 
	C378.570374,359.174286 382.540344,359.825500 386.042969,360.053680 
	C389.519135,360.280121 392.973236,360.844971 397.596191,361.400757 
	C393.363464,357.909790 390.161438,355.268921 386.638428,352.363281 
	C387.672760,351.103516 388.556915,350.026672 389.582489,348.777618 
	C391.206635,349.806000 392.782562,350.613800 394.137634,351.697754 
	C398.080444,354.851654 401.983246,358.060547 405.788513,361.377716 
	C406.694305,362.167358 407.158081,363.464050 407.825195,364.527496 
	C406.500793,365.348755 405.173584,366.870575 403.852570,366.865234 
	C399.123535,366.846100 394.396606,366.309540 388.193756,365.862305 
	C392.373260,369.255768 395.613953,371.886993 399.104828,374.721344 
	C398.208405,376.104950 397.287140,377.526947 396.279999,379.081421 
	C392.483154,376.192627 388.759521,373.359497 384.780640,370.265076 
z"/>
<path fill="#F4FEF8" opacity="1.000000" stroke="none" 
	d="
M166.988800,407.967194 
	C164.629196,412.017059 162.309082,415.693970 159.763824,419.727722 
	C158.352493,419.084595 156.827560,418.389709 154.988098,417.551483 
	C154.988098,411.964600 154.988098,406.230499 154.988098,399.032867 
	C151.862244,404.081024 149.465485,407.951752 146.959991,411.998047 
	C145.460480,411.142395 144.278824,410.468109 142.526901,409.468414 
	C146.731796,402.555450 150.789688,395.884125 154.971848,389.008545 
	C164.200485,393.855377 157.816635,402.227722 160.511551,408.463867 
	C162.686005,404.764435 164.954880,400.904388 167.405548,396.735016 
	C168.991806,397.761932 170.370422,398.654419 171.872116,399.626556 
	C170.213287,402.355194 168.620789,404.974731 166.988800,407.967194 
z"/>
<path fill="#F5FEF9" opacity="1.000000" stroke="none" 
	d="
M249.204773,420.515686 
	C252.652222,417.824341 255.002365,418.740845 257.034149,422.011292 
	C259.300751,425.659698 261.860718,429.125885 264.847900,433.480316 
	C264.453369,428.235809 264.126160,423.886078 263.801025,419.563965 
	C268.943634,418.900452 269.704376,419.245239 269.909088,423.808472 
	C270.190674,430.086151 269.979584,436.385925 269.979584,443.274231 
	C261.005188,442.440613 260.624756,433.628876 255.445953,429.361725 
	C255.445953,433.728546 255.445953,438.075714 255.445953,442.708679 
	C254.116409,442.708679 252.349747,442.708679 250.481064,442.708679 
	C250.006989,435.564606 249.520721,428.237030 249.204773,420.515686 
z"/>
<path fill="#F4FEF9" opacity="1.000000" stroke="none" 
	d="
M345.071777,90.826126 
	C342.676086,94.694252 340.359680,98.175552 338.088440,101.588974 
	C332.855072,100.283310 333.834900,97.743317 336.102722,94.487717 
	C339.590637,89.480576 342.787079,84.270393 346.149231,79.081482 
	C355.057343,83.500114 348.925903,91.592728 351.627197,97.884865 
	C353.937134,94.287529 356.205139,90.755508 358.664703,86.925186 
	C360.080994,87.808311 361.513062,88.701263 362.978668,89.615112 
	C359.576355,95.286369 356.305206,100.981529 352.740601,106.486702 
	C351.981842,107.658524 349.709595,109.091591 348.920959,108.722794 
	C347.615570,108.112343 346.320496,106.215958 346.129669,104.719955 
	C345.526855,99.995026 345.438416,95.204468 345.071777,90.826126 
z"/>
<path fill="#F5FEF9" opacity="1.000000" stroke="none" 
	d="
M435.880066,271.004089 
	C438.294312,271.090210 440.306610,271.010193 442.245178,271.350311 
	C442.913696,271.467560 444.023865,272.914978 443.862946,273.269623 
	C443.006775,275.156708 442.229706,277.672852 440.648499,278.518097 
	C437.011963,280.461975 432.916443,281.539551 429.033905,283.037872 
	C428.352997,283.300690 427.801941,283.899994 427.105072,284.406250 
	C432.194580,285.422302 436.964355,286.374512 441.653442,287.310638 
	C441.145844,291.520691 440.130371,292.591187 436.341919,291.342712 
	C431.790436,289.842804 426.780151,289.755280 421.982208,288.972351 
	C420.292664,288.696686 418.643494,288.173462 417.116425,287.797821 
	C417.735046,278.005402 427.729340,280.602509 432.473724,275.531342 
	C428.151276,274.907501 424.378143,274.362915 420.274200,273.770630 
	C420.171875,272.426819 420.064056,271.010651 419.878906,268.579193 
	C425.351318,269.431030 430.400238,270.216919 435.880066,271.004089 
z"/>
<path fill="#F9FEFB" opacity="1.000000" stroke="none" 
	d="
M72.044739,221.983185 
	C62.893963,222.065842 58.892319,211.534637 63.678268,205.807800 
	C66.288124,202.684845 73.315292,200.582520 76.678337,202.167709 
	C80.196938,203.826202 82.791100,209.817657 81.949554,214.537033 
	C81.355942,217.866013 77.435425,222.520767 72.044739,221.983185 
z"/>
<path fill="#F8FEFB" opacity="1.000000" stroke="none" 
	d="
M429.127563,221.981537 
	C423.831177,221.616928 420.947968,218.796265 420.088440,214.209854 
	C419.175995,209.340820 421.965668,203.618927 425.491302,202.125717 
	C428.717316,200.759399 435.314697,202.448395 437.724609,205.257553 
	C440.392792,208.367783 441.253418,214.938675 438.344635,217.820328 
	C436.170441,219.974274 432.530548,220.648712 429.127563,221.981537 
z"/>
<path fill="#F5FEF8" opacity="1.000000" stroke="none" 
	d="
M262.979126,78.988930 
	C259.829712,78.566818 257.123993,78.143646 255.248123,77.850266 
	C255.248123,70.329597 255.224304,63.016045 255.301224,55.703556 
	C255.306412,55.211212 256.167114,54.249569 256.470245,54.309807 
	C261.718384,55.352856 267.262939,55.785374 272.073578,57.884609 
	C276.320038,59.737637 277.009735,66.687317 274.554230,72.847664 
	C272.634430,77.664032 268.335785,79.110397 262.979126,78.988930 
M260.998657,61.718609 
	C260.705841,65.755379 260.412994,69.792152 259.989838,75.625755 
	C263.971588,73.544571 267.987000,72.682014 269.533752,70.249634 
	C270.791229,68.272125 269.877655,63.907330 268.390076,61.586067 
	C267.559540,60.290051 263.595032,61.002441 260.998657,61.718609 
z"/>
<path fill="#F3FEF8" opacity="1.000000" stroke="none" 
	d="
M85.145645,305.336456 
	C81.772346,306.411743 78.669899,307.775970 75.562889,307.786438 
	C73.246292,307.794250 70.480110,306.556305 68.694237,304.985992 
	C64.701210,301.474823 62.735802,291.686066 64.375885,288.816650 
	C65.782753,289.058319 67.008621,289.631439 68.040253,289.386505 
	C74.137520,287.938782 80.189667,286.300964 86.623131,284.632202 
	C87.255470,291.821686 92.636818,298.730560 85.145645,305.336456 
M75.607338,302.999207 
	C76.495132,302.671478 77.359558,302.241180 78.274521,302.032745 
	C84.090012,300.707916 85.716858,296.740173 82.690941,291.316528 
	C78.274788,292.422974 73.870934,293.526306 67.788658,295.050201 
	C70.613876,298.241364 72.710907,300.610016 75.607338,302.999207 
z"/>
<path fill="#F4FEF8" opacity="1.000000" stroke="none" 
	d="
M175.003647,404.062378 
	C175.500259,403.199524 175.905457,402.374847 176.414673,402.304688 
	C180.334290,401.764374 189.594528,407.875916 190.997726,411.813690 
	C192.559799,416.197205 189.909073,424.178619 185.731735,426.682922 
	C180.605148,429.756226 175.725647,427.368164 170.922592,425.437592 
	C169.601913,424.906708 168.375015,424.142578 166.674683,423.262756 
	C169.446899,416.968445 172.203659,410.709229 175.003647,404.062378 
M174.051041,421.435425 
	C179.666031,424.205078 183.159134,423.368958 184.985703,418.818085 
	C187.324890,412.990021 185.997543,410.516418 179.223114,408.277405 
	C177.484360,412.383942 175.740982,416.501404 174.051041,421.435425 
z"/>
<path fill="#F3FEF9" opacity="1.000000" stroke="none" 
	d="
M318.266602,73.261124 
	C322.191589,68.793434 326.932983,69.169823 331.031586,71.248596 
	C333.843414,72.674728 335.690125,76.003716 337.968262,78.482109 
	C337.393402,79.205124 336.818573,79.928131 336.243744,80.651146 
	C334.492340,79.605972 332.443146,78.857307 331.048553,77.456818 
	C327.650208,74.044075 324.222137,73.872986 321.685089,77.893150 
	C318.069550,83.622246 317.909302,88.293457 323.663574,89.168739 
	C325.113586,89.389305 326.746948,88.404266 328.296051,87.973259 
	C328.232391,87.547241 328.168732,87.121223 328.105072,86.695206 
	C326.583710,86.062286 325.062347,85.429367 323.516510,84.786270 
	C324.743652,80.547089 325.039368,80.315887 328.120422,81.617775 
	C330.330933,82.551826 332.486938,83.614944 334.936523,84.744637 
	C333.167297,88.686760 331.301361,92.844322 329.571228,96.699379 
	C326.548248,95.557022 323.798157,94.352867 320.947632,93.474777 
	C314.916443,91.616882 312.131927,85.922874 314.629089,79.931641 
	C315.552185,77.716881 316.860504,75.662682 318.266602,73.261124 
z"/>
<path fill="#F3FEF8" opacity="1.000000" stroke="none" 
	d="
M202.748535,429.645233 
	C204.055847,423.928467 205.143539,418.583893 206.232971,413.230743 
	C222.718933,417.482086 225.624969,420.059509 223.969040,428.850464 
	C222.935287,434.338409 219.628342,438.709290 214.967178,438.788696 
	C210.374969,438.866913 205.757538,437.465057 201.144028,436.711426 
	C201.629318,434.365692 202.079117,432.191559 202.748535,429.645233 
M218.635712,424.096619 
	C216.261078,422.084747 213.886429,420.072876 211.200531,417.797302 
	C209.945724,422.278412 208.856125,425.318054 208.316147,428.452423 
	C208.040619,430.051697 208.439682,433.120453 209.074066,433.272614 
	C211.073334,433.752106 214.238876,433.981598 215.284393,432.813843 
	C217.156143,430.723358 217.810776,427.543091 218.635712,424.096619 
z"/>
<path fill="#F5FEF9" opacity="1.000000" stroke="none" 
	d="
M168.073029,97.679840 
	C162.317657,104.874741 158.430130,106.122459 152.430115,103.056229 
	C147.176712,100.371544 143.611069,91.496124 145.996140,87.041100 
	C149.746140,80.036530 156.472321,78.036018 162.980743,81.989517 
	C167.158890,84.527496 169.703903,92.038406 168.073029,97.679840 
M154.659958,98.119301 
	C157.152466,97.873642 159.884338,98.142441 162.027222,97.145401 
	C162.969070,96.707191 163.409805,93.438736 162.853043,91.898018 
	C161.695496,88.694748 160.392090,84.865555 155.925797,85.062683 
	C153.011429,85.191315 150.247879,86.473763 151.074997,90.158714 
	C151.652161,92.730011 153.030502,95.121468 154.659958,98.119301 
z"/>
<path fill="#F4FEF9" opacity="1.000000" stroke="none" 
	d="
M133.709045,110.787437 
	C135.086517,113.975906 136.728302,116.911766 138.278763,119.684303 
	C137.509399,120.669083 136.492493,121.970757 135.200943,123.623947 
	C129.889511,117.224121 124.933998,111.253159 119.609520,104.837616 
	C121.280937,103.514305 122.857605,102.266014 124.303490,101.121262 
	C126.039864,103.551949 127.631638,105.780205 129.231995,108.020485 
	C131.690063,106.051498 133.944397,104.245712 136.400558,102.278252 
	C134.531647,99.793198 132.882599,97.600494 131.103165,95.234421 
	C132.416794,94.259659 133.848114,93.197563 135.412094,92.037033 
	C140.314850,98.026817 145.122421,103.900299 150.143585,110.034752 
	C149.007156,111.306702 147.822281,112.632866 146.460999,114.156464 
	C144.188202,111.411263 142.014908,108.786255 139.678040,105.963676 
	C137.681732,107.563316 135.827560,109.049072 133.709045,110.787437 
z"/>
<path fill="#F4FEF8" opacity="1.000000" stroke="none" 
	d="
M373.162628,98.649582 
	C378.334015,100.298103 381.346649,103.544388 381.923523,108.501938 
	C382.503143,113.483414 377.713745,120.050652 372.643097,121.972534 
	C367.641266,123.868370 363.976685,121.524788 360.656586,118.147766 
	C357.537109,114.974785 357.116333,111.373360 358.911682,107.377487 
	C361.850281,100.837105 366.650909,97.716942 373.162628,98.649582 
M370.861694,116.679947 
	C372.569092,114.861626 374.514465,113.208878 375.923676,111.183128 
	C377.692444,108.640541 375.025238,103.529648 371.901947,103.021919 
	C369.178955,102.579285 362.933380,108.268188 363.076355,111.556076 
	C363.261536,115.815376 366.104736,117.325592 370.861694,116.679947 
z"/>
<path fill="#F4FEF8" opacity="1.000000" stroke="none" 
	d="
M210.432800,59.173904 
	C213.483673,63.700802 216.015259,68.185829 218.879089,72.447578 
	C220.810699,75.322029 223.211060,77.881477 225.103729,80.214493 
	C224.230957,80.372345 222.565979,80.778381 220.877518,80.941940 
	C219.753647,81.050819 217.726059,81.107666 217.584015,80.687340 
	C215.346481,74.065514 210.893005,78.239014 207.067596,78.249557 
	C207.067596,80.059143 207.067596,81.686859 207.067596,83.644493 
	C204.836670,84.175430 202.742493,84.673813 200.925217,85.106308 
	C201.641388,78.613586 202.559372,72.446648 202.937073,66.246780 
	C203.297791,60.325771 204.134247,59.201759 210.432800,59.173904 
z"/>
<path fill="#F3FEF8" opacity="1.000000" stroke="none" 
	d="
M100.698837,364.791626 
	C99.564705,365.468262 98.698875,365.891785 97.833054,366.315277 
	C97.201042,364.737030 96.110306,363.156982 96.116508,361.581238 
	C96.119995,360.697235 97.938271,359.820312 98.996399,358.889618 
	C97.312614,356.416046 95.817635,354.219849 94.171608,351.801727 
	C90.346848,353.912964 87.457619,353.255493 86.108475,348.719879 
	C92.680290,346.830902 99.206001,344.746033 105.854523,343.183777 
	C107.628563,342.766907 110.845184,343.359192 111.498512,344.539978 
	C112.412643,346.192108 112.331978,349.338531 111.291039,350.950958 
	C108.214920,355.715881 104.457832,360.041199 100.698837,364.791626 
z"/>
<path fill="#F4FEF7" opacity="1.000000" stroke="none" 
	d="
M139.348679,380.265320 
	C142.404846,377.729706 144.065933,380.615906 145.855453,381.673950 
	C146.503403,382.057068 146.393143,384.523102 145.954865,385.808960 
	C143.645615,392.583984 141.120895,399.285553 138.643021,406.089264 
	C134.016068,403.071869 134.016068,403.071869 135.976501,397.459473 
	C134.475800,396.301849 133.014954,394.988525 131.367096,393.980988 
	C130.518372,393.462097 128.732513,392.964050 128.399353,393.348511 
	C125.214607,397.023712 123.366302,393.402985 120.558289,392.077454 
	C126.934700,388.076202 132.986938,384.278381 139.348679,380.265320 
z"/>
<path fill="#F3FEF7" opacity="1.000000" stroke="none" 
	d="
M298.011353,415.237366 
	C301.041443,410.587555 303.384430,410.485809 306.044861,414.270630 
	C309.960022,419.840485 314.005402,425.318817 318.162811,431.067749 
	C315.433838,433.244751 313.338348,434.129425 310.724976,430.569855 
	C309.939362,429.499817 306.330322,429.365601 304.854034,430.232300 
	C303.073975,431.277283 302.187714,433.844757 300.914551,435.753204 
	C301.235565,436.020203 301.556549,436.287201 301.877563,436.554169 
	C300.395142,437.018433 298.912720,437.482727 296.543884,438.224579 
	C297.052795,430.378754 297.529999,423.021759 298.011353,415.237366 
z"/>
<path fill="#F4FEF8" opacity="1.000000" stroke="none" 
	d="
M299.212952,64.377747 
	C300.980743,61.912258 302.951538,61.192745 305.567566,62.102055 
	C308.485596,63.116352 307.892975,65.450500 308.020142,67.674812 
	C308.402557,74.364288 308.926819,81.045662 309.423828,88.130394 
	C307.268280,87.526367 305.902649,87.143700 304.101898,86.639091 
	C305.923920,79.808060 300.487427,80.026131 295.848175,78.936577 
	C294.023132,81.441437 292.242950,85.149162 287.973480,81.217110 
	C291.592773,75.803337 295.307556,70.246704 299.212952,64.377747 
z"/>
<path fill="#F3FEF8" opacity="1.000000" stroke="none" 
	d="
M79.979805,273.186096 
	C78.452492,272.440033 76.952156,272.137939 75.180077,271.781128 
	C75.550873,275.338684 75.863892,278.341888 76.175461,281.331177 
	C71.415985,281.997986 71.415985,281.997986 70.714844,273.440399 
	C65.738510,272.843384 65.754242,272.842621 65.978394,277.412537 
	C66.043602,278.741974 65.647598,280.194885 66.056488,281.387787 
	C67.286949,284.977631 65.403297,285.249237 62.354153,284.828613 
	C61.469196,279.969177 60.561584,274.985291 59.434063,268.793823 
	C67.027756,267.811707 75.160622,266.759827 83.576103,265.671417 
	C84.243271,271.061920 84.851143,275.973297 85.526825,281.432587 
	C84.183998,281.652466 82.846222,281.871521 81.090820,282.158966 
	C80.696907,279.059814 80.351837,276.344940 79.979805,273.186096 
z"/>
<path fill="#F3FEF8" opacity="1.000000" stroke="none" 
	d="
M231.071198,441.990906 
	C229.740005,441.019562 228.081116,440.002686 228.134735,439.085999 
	C228.541046,432.138794 229.282913,425.211243 229.950790,417.943726 
	C235.498077,418.434021 240.501312,418.876251 245.764664,419.341461 
	C246.285034,422.061310 246.061874,424.280701 242.384750,423.940521 
	C240.157761,423.734528 237.964584,423.162750 235.599579,422.726379 
	C234.994217,424.514282 234.496536,425.984131 233.811234,428.008148 
	C236.405914,428.008148 238.714203,427.753967 240.921158,428.116486 
	C242.007477,428.294952 242.906357,429.614532 243.890060,430.417694 
	C242.730316,431.276672 241.620300,432.754944 240.399460,432.852966 
	C238.450989,433.009430 236.428848,432.248199 234.168976,431.824585 
	C234.168976,434.094452 234.168976,435.846405 234.168976,437.992920 
	C237.415115,437.992920 240.500046,437.992920 243.779999,437.992920 
	C243.779999,439.780731 243.779999,441.175903 243.779999,443.129608 
	C239.552994,442.736786 235.544800,442.364288 231.071198,441.990906 
z"/>
<path fill="#F5FEF8" opacity="1.000000" stroke="none" 
	d="
M382.674255,133.186737 
	C384.292267,133.060913 385.625092,132.677277 387.141479,132.240784 
	C385.863800,129.707474 384.886353,127.887978 384.016876,126.018265 
	C382.638062,123.053314 382.010620,120.238777 384.892944,117.574409 
	C387.688202,114.990532 390.717682,114.650566 393.383575,117.022232 
	C395.631927,119.022423 397.368256,121.724632 398.826599,124.391983 
	C399.165222,125.011368 397.453613,126.751671 396.685394,127.976212 
	C395.795563,127.029099 394.409790,126.217392 394.107361,125.109886 
	C393.139435,121.564774 391.714020,119.788589 388.225830,122.066429 
	C389.537537,126.882881 394.945679,130.727783 390.386902,136.060928 
	C388.242035,138.570145 385.463898,139.873001 382.062988,138.557983 
	C377.636963,136.846588 374.971588,131.921692 375.077606,125.370956 
	C376.593842,125.370956 378.122711,125.370956 379.012665,125.370956 
	C380.219940,128.073425 381.304504,130.501175 382.674255,133.186737 
z"/>
<path fill="#F4FEF8" opacity="1.000000" stroke="none" 
	d="
M228.302277,62.697243 
	C230.848160,63.683765 233.122879,64.818977 235.436340,64.904312 
	C239.837448,65.066650 242.031326,67.852737 241.699234,71.323509 
	C241.458649,73.838043 239.168549,77.080727 236.897385,78.229897 
	C234.370865,79.508278 230.721039,79.354050 227.755554,78.792297 
	C223.339249,77.955711 223.076447,75.556320 226.477737,72.296455 
	C227.279587,72.636734 227.990356,73.103157 228.757843,73.232147 
	C230.794083,73.574348 232.853104,73.882858 234.907547,73.914673 
	C235.248871,73.919952 235.983688,71.821671 235.911972,71.780380 
	C234.146729,70.763985 232.383591,69.479332 230.446396,69.075172 
	C224.384094,67.810440 222.683929,66.339920 223.024796,61.547195 
	C223.391342,56.393280 227.453018,55.494904 231.357773,55.125175 
	C233.840622,54.890083 236.426865,55.747131 239.474884,56.187931 
	C238.712845,58.096466 238.136658,59.539539 237.616486,60.842323 
	C234.209229,61.311584 230.374878,57.150394 228.302277,62.697243 
z"/>
<path fill="#F2FEF9" opacity="1.000000" stroke="none" 
	d="
M90.310867,177.237213 
	C90.273720,175.944321 90.226021,174.696991 89.581535,174.007401 
	C89.259125,173.662430 87.632309,174.068558 86.971848,174.601440 
	C85.428146,175.846985 84.130363,177.393417 82.699959,178.784027 
	C78.710915,182.662125 74.297195,181.820404 71.982971,176.756699 
	C70.458366,173.420761 72.729462,165.832550 76.148949,164.563782 
	C77.494278,164.064636 79.563164,165.515610 81.953773,166.289291 
	C78.928139,169.688187 73.696510,171.139145 77.920921,176.736465 
	C79.487534,174.807632 80.851822,173.284286 82.038940,171.633530 
	C84.456673,168.271484 88.915283,166.769653 91.891273,168.423569 
	C95.896797,170.649689 97.210457,174.617386 94.943459,178.921570 
	C93.753059,181.181686 92.135628,183.403015 90.183411,184.994690 
	C89.252625,185.753555 87.090431,185.002014 85.486023,184.934647 
	C85.966362,183.629486 86.254051,182.203247 86.978004,181.051178 
	C87.799553,179.743774 89.011597,178.681763 90.310867,177.237213 
z"/>
<path fill="#F3FEF7" opacity="1.000000" stroke="none" 
	d="
M402.009583,327.305237 
	C404.360565,324.930695 406.586823,322.781128 409.117035,321.084961 
	C409.924011,320.544006 411.537781,321.206543 412.782379,321.318359 
	C412.109650,322.867645 411.637665,324.550385 410.717499,325.935272 
	C409.310974,328.052185 407.595062,329.963562 406.010498,331.962189 
	C408.623749,333.975677 410.994385,336.536865 413.924561,337.834930 
	C416.410095,338.936096 419.307190,337.887848 420.000519,334.597015 
	C420.368134,332.852051 420.065582,330.965912 420.065582,329.143494 
	C419.623901,329.009583 419.182251,328.875702 418.740570,328.741791 
	C420.011292,327.674316 421.282043,326.606842 422.599213,325.500366 
	C427.037720,332.006775 426.756165,335.109436 422.895966,339.691040 
	C418.403809,345.022736 412.534393,344.206451 406.490204,340.753235 
	C402.095642,338.242493 400.267334,332.382263 402.009583,327.305237 
z"/>
<path fill="#F3FEF7" opacity="1.000000" stroke="none" 
	d="
M421.293213,168.730835 
	C419.216064,168.921005 417.376099,169.168503 415.693237,169.821106 
	C412.762787,170.957520 410.019775,173.032425 411.206207,176.336700 
	C412.023193,178.612152 414.748108,180.202545 416.620331,182.099106 
	C417.143860,181.883743 417.667419,181.668381 418.190948,181.453018 
	C417.716949,182.844101 417.616028,184.946762 416.672119,185.441666 
	C415.554688,186.027573 413.527740,185.601151 412.212952,184.960724 
	C407.109650,182.474976 404.554718,175.801147 406.601013,170.922180 
	C408.825653,165.618011 417.311859,161.437866 422.551758,163.241470 
	C428.497986,165.288193 431.354797,171.519180 429.891937,177.272385 
	C429.622437,178.332275 428.113434,179.076965 427.176514,179.967133 
	C426.434387,178.698822 425.159515,177.471313 425.058624,176.153885 
	C424.832947,173.207016 425.593323,170.028488 421.293213,168.730835 
z"/>
<path fill="#F3FEF8" opacity="1.000000" stroke="none" 
	d="
M90.501175,326.165588 
	C88.156052,327.678131 85.643394,328.672028 84.395813,330.519989 
	C83.554871,331.765564 83.842247,334.714264 84.815323,336.000580 
	C85.984917,337.546753 88.418098,338.137054 90.824646,339.418304 
	C91.032082,343.417419 88.496597,345.322296 84.386658,342.619934 
	C81.122765,340.473877 78.723442,337.476654 78.874840,332.827576 
	C79.016258,328.484741 80.114143,325.382446 84.184799,323.291443 
	C90.766624,319.910522 97.022812,319.398376 100.244423,324.969879 
	C101.911896,327.853607 103.051178,331.688660 102.710556,334.912292 
	C102.344841,338.373444 99.514503,338.102020 97.262558,335.718231 
	C98.992226,328.741302 97.299782,326.189514 90.501175,326.165588 
z"/>
<path fill="#F3FEF8" opacity="1.000000" stroke="none" 
	d="
M343.646545,408.122864 
	C342.572296,405.275909 341.217743,402.711700 341.110046,400.096161 
	C340.756622,391.516785 348.356903,386.764160 356.560150,390.260010 
	C356.219666,391.558868 355.876617,392.867462 355.470276,394.417542 
	C349.429871,393.497284 344.333527,394.195099 346.723114,402.086853 
	C347.674103,405.227539 350.156006,409.018066 354.106934,407.749420 
	C356.615845,406.943817 358.306183,403.588776 360.363617,401.377014 
	C360.042236,400.992126 359.720886,400.607239 359.399506,400.222351 
	C360.816223,400.222351 362.232971,400.222351 363.628693,400.222351 
	C364.220551,406.473907 362.489838,409.917999 357.302094,412.132996 
	C352.867615,414.026367 347.820740,413.675812 343.646545,408.122864 
z"/>
<path fill="#F3FEF7" opacity="1.000000" stroke="none" 
	d="
M427.091187,250.409241 
	C425.058838,256.549011 425.841187,258.140991 431.256439,259.707336 
	C435.283722,260.872253 439.953918,258.855621 440.148499,255.178818 
	C440.270813,252.867783 438.434235,250.453064 437.111633,247.182739 
	C437.194000,247.112289 439.188293,244.975952 439.508911,245.202972 
	C441.540466,246.641708 444.131897,248.310776 444.804199,250.449203 
	C446.550323,256.003021 444.285950,261.536835 440.229004,263.918732 
	C436.609467,266.043732 426.589050,265.308289 423.936401,262.312439 
	C420.040527,257.912537 419.417389,249.923981 424.150970,246.480423 
	C425.119293,245.775986 426.644623,245.837173 427.913147,245.545441 
	C427.723511,247.064240 427.533875,248.583038 427.091187,250.409241 
z"/>
<path fill="#F3FEF8" opacity="1.000000" stroke="none" 
	d="
M281.009033,433.914154 
	C280.287109,429.694855 279.565582,425.912140 278.714905,421.452179 
	C276.837952,422.425812 275.356171,423.194427 273.536957,424.138092 
	C272.480865,422.267151 271.411743,420.373138 270.153625,418.144257 
	C276.598145,417.317139 283.025452,416.492249 289.644897,415.642700 
	C290.002136,416.668549 290.465912,418.000336 291.081390,419.767792 
	C288.880798,420.344086 286.754822,420.900818 284.475922,421.497589 
	C285.285339,425.929108 286.219574,430.580078 286.961029,435.261566 
	C287.484375,438.565491 286.849670,441.209229 282.550964,440.913208 
	C282.035583,438.719208 281.522491,436.534943 281.009033,433.914154 
z"/>
<path fill="#F2FEF8" opacity="1.000000" stroke="none" 
	d="
M112.777237,123.264297 
	C111.988945,122.386398 111.443871,121.760674 110.854721,121.084343 
	C109.224144,122.900627 107.734123,124.560356 106.280342,126.179718 
	C102.131516,122.551353 102.105759,122.526352 105.034760,119.508446 
	C108.379730,116.061943 111.776642,112.665833 115.140434,109.258537 
	C118.827400,112.365425 118.827400,112.365425 114.619789,116.987137 
	C118.666199,121.719604 122.696472,126.433197 126.860596,131.303314 
	C126.540527,131.532089 125.150810,132.525375 123.157326,133.950211 
	C120.111084,130.814743 116.565773,127.165611 112.777237,123.264297 
z"/>
<path fill="#F4FEF7" opacity="1.000000" stroke="none" 
	d="
M413.116547,145.961792 
	C411.008484,144.898254 409.262787,143.795547 406.959625,142.340729 
	C403.738861,144.633057 399.903442,147.176147 396.283112,149.995468 
	C393.074310,152.494354 390.815613,152.308701 389.285217,148.200073 
	C394.100739,144.746826 398.944336,141.273453 404.244263,137.472839 
	C403.169495,135.567841 402.110291,133.690445 401.027405,131.771118 
	C402.167511,130.945938 403.316406,130.114380 404.588654,129.193542 
	C407.525604,133.085800 410.690186,136.929962 413.385712,141.078842 
	C414.132538,142.228394 413.486084,144.283173 413.116547,145.961792 
z"/>
<path fill="#F3FEF8" opacity="1.000000" stroke="none" 
	d="
M81.850647,159.962418 
	C80.792290,158.670898 79.207153,156.883102 79.599861,156.138611 
	C82.135666,151.331314 85.103317,146.751831 88.002777,141.976624 
	C89.434662,142.965164 90.563202,143.744278 91.701950,144.530441 
	C90.812004,146.323395 89.899895,148.160980 88.834358,150.307693 
	C94.137245,153.561569 99.411064,156.797607 104.882683,160.155029 
	C103.920921,161.556122 103.080925,162.779816 101.888680,164.516693 
	C96.497597,161.328308 91.163101,158.173386 85.859978,155.037018 
	C84.639412,156.692413 83.438965,158.320511 81.850647,159.962418 
z"/>
<path fill="#F3FEF8" opacity="1.000000" stroke="none" 
	d="
M117.781143,364.708954 
	C114.697845,367.446930 111.864334,369.919952 109.074493,372.354858 
	C111.076401,374.874756 113.004189,377.301331 115.083450,379.918610 
	C114.177917,381.253265 113.228462,382.652618 112.240051,384.109406 
	C108.808037,379.828735 105.507385,375.711914 101.946594,371.270630 
	C107.863693,366.180481 113.794090,361.078827 119.975365,355.761414 
	C121.034019,357.179962 122.032928,358.518433 123.334961,360.263092 
	C121.508789,361.702576 119.769867,363.073273 117.781143,364.708954 
z"/>
<path fill="#F3FEF8" opacity="1.000000" stroke="none" 
	d="
M380.029510,395.001160 
	C376.932648,397.306396 374.202148,399.581940 371.224091,402.063782 
	C366.047852,395.963440 360.976257,389.986389 355.809235,383.896881 
	C357.269867,382.855469 358.545776,381.945740 360.320221,380.680573 
	C364.235504,385.397400 368.163757,390.129883 372.135498,394.914734 
	C374.806946,392.815399 377.301361,390.855194 380.257629,388.532074 
	C381.329651,389.648682 382.306183,390.665771 384.032288,392.463654 
	C382.561554,393.477936 381.478729,394.224701 380.029510,395.001160 
z"/>
<path fill="#F3FEF7" opacity="1.000000" stroke="none" 
	d="
M321.986664,427.015442 
	C319.207001,420.704529 316.448639,414.776276 313.598114,408.649963 
	C315.274475,407.598206 316.609436,406.760651 318.264526,405.722229 
	C320.946594,411.665070 323.537445,417.405792 326.007080,422.877930 
	C330.291107,422.816528 334.286652,416.260468 337.844971,423.621674 
	C333.395935,425.460449 329.063080,427.355927 324.625549,428.962280 
	C324.020996,429.181122 322.893402,427.955139 321.986664,427.015442 
z"/>
<path fill="#F3FEF9" opacity="1.000000" stroke="none" 
	d="
M372.781067,374.261780 
	C371.647552,373.255157 370.755219,372.501831 369.976654,371.844513 
	C371.315826,370.311920 372.403961,369.066650 373.830475,367.434113 
	C379.111023,372.696381 384.290436,377.567596 389.012695,382.847717 
	C389.805298,383.734039 388.618622,386.390503 388.346466,388.229034 
	C387.710144,388.318054 387.073792,388.407074 386.437439,388.496094 
	C381.965698,383.835754 377.493958,379.175446 372.781067,374.261780 
z"/>
<path fill="#F3FEF8" opacity="1.000000" stroke="none" 
	d="
M80.925751,312.980957 
	C84.023659,311.958282 86.887550,311.262024 89.372734,309.883148 
	C93.552589,307.564056 94.464310,309.857391 95.050529,313.295258 
	C87.752426,316.142365 80.553749,318.950684 73.064919,321.872192 
	C72.316704,320.025085 71.615005,318.292847 70.949768,316.650574 
	C74.266991,315.385590 77.394234,314.193024 80.925751,312.980957 
z"/>
<path fill="#F3FEF7" opacity="1.000000" stroke="none" 
	d="
M409.273254,354.758911 
	C403.719604,351.179047 398.439850,347.861481 392.858276,344.354309 
	C393.695068,342.837280 394.510040,341.359894 395.474731,339.611023 
	C401.602814,343.459442 407.562408,346.904480 413.111511,350.917175 
	C414.342957,351.807648 414.126404,354.700531 414.576569,356.671448 
	C414.132690,356.837158 413.688843,357.002899 413.244965,357.168610 
	C412.012360,356.452850 410.779724,355.737061 409.273254,354.758911 
z"/>
<path fill="#F3FEF8" opacity="1.000000" stroke="none" 
	d="
M415.654114,156.745529 
	C410.360504,159.762283 405.380035,162.564026 400.461853,165.330734 
	C397.220917,161.090530 397.126831,160.932648 400.909149,158.679001 
	C406.391418,155.412460 412.025818,152.401291 417.587921,149.285309 
	C422.912781,152.879547 418.593445,154.524902 415.654114,156.745529 
z"/>
<path fill="#F2FEF8" opacity="1.000000" stroke="none" 
	d="
M282.972656,60.899635 
	C283.087158,59.347237 283.178833,58.227497 283.273102,57.075954 
	C285.190826,57.532078 286.888062,57.935764 288.754242,58.379631 
	C287.413147,65.703926 286.069519,73.042038 284.667786,80.697525 
	C282.963898,80.697525 281.080994,80.697525 279.045349,80.697525 
	C280.365448,74.150040 281.657623,67.741173 282.972656,60.899635 
z"/>
<path fill="#F2FEF8" opacity="1.000000" stroke="none" 
	d="
M434.365723,303.715027 
	C428.452393,301.985687 422.832245,300.658661 417.380310,298.830017 
	C416.279419,298.460754 415.815674,296.192078 415.058197,294.799072 
	C416.196625,294.468964 417.451660,293.648987 418.454681,293.887756 
	C425.287964,295.514191 432.068207,297.363403 439.430054,300.490448 
	C437.859406,301.640472 436.288788,302.790497 434.365723,303.715027 
z"/>
<path fill="#EEFFF4" opacity="1.000000" stroke="none" 
	d="
M430.452332,318.175232 
	C434.257324,320.060669 436.464386,322.505646 434.667938,327.538116 
	C433.455597,326.136475 432.243225,324.734863 431.275970,323.616577 
	C429.522888,323.482605 427.706970,323.584869 426.092590,323.063324 
	C425.648438,322.919800 425.291748,320.310822 425.792206,319.883209 
	C426.921112,318.918579 428.610565,318.609955 430.452332,318.175232 
z"/>
<path fill="#EEFFF4" opacity="1.000000" stroke="none" 
	d="
M111.244843,150.245071 
	C109.384872,150.227325 107.665344,150.188782 106.342148,149.445084 
	C105.898613,149.195816 106.038513,146.779175 106.689835,146.026917 
	C107.349136,145.265472 109.882156,144.860001 110.020729,145.124146 
	C110.791626,146.593658 111.084007,148.314178 111.244843,150.245071 
z"/>
<path fill="#EEFFF4" opacity="1.000000" stroke="none" 
	d="
M441.800537,240.964783 
	C440.309906,239.367966 439.237457,237.756409 437.578644,235.263763 
	C440.874023,235.263763 442.613831,235.263763 445.934448,235.263763 
	C444.443817,237.544922 443.331268,239.247498 441.800537,240.964783 
z"/>
<path fill="#000000" opacity="1.000000" stroke="none" 
	d="
M332.325745,375.270264 
	C316.933228,385.443146 300.577271,392.535339 282.832336,395.903229 
	C272.450897,397.873566 261.854126,399.739044 251.345123,399.790466 
	C230.254303,399.893738 209.898941,395.546875 190.438278,386.971771 
	C170.693008,378.271271 153.727295,365.794891 139.472809,349.842194 
	C122.073265,330.369812 110.730042,307.644104 104.903358,282.080505 
	C101.297318,266.259552 100.767357,250.165054 102.291748,234.356033 
	C104.872963,207.587036 114.522743,183.115433 130.937973,161.456696 
	C147.078613,140.160263 167.132477,123.851936 191.593460,113.174011 
	C203.266449,108.078430 215.401810,104.230682 228.210068,102.970993 
	C234.052444,102.396400 239.865601,101.250923 245.714478,101.062653 
	C273.076111,100.181931 298.883942,106.158577 322.900970,119.407028 
	C339.393402,128.504715 353.402618,140.510345 365.587585,154.931763 
	C377.969086,169.585785 386.874756,186.029007 392.937531,204.053055 
	C399.550903,223.713928 401.711578,244.183197 399.783844,264.639801 
	C397.113251,292.979858 386.879578,318.725647 369.224945,341.382263 
	C358.868317,354.673218 346.943848,366.128784 332.325745,375.270264 
M223.090546,387.569031 
	C228.311096,388.052124 233.530380,388.923706 238.752457,388.940765 
	C251.182068,388.981384 263.915741,390.252625 275.969788,388.020142 
	C292.480591,384.962250 308.441986,379.170715 322.970764,370.052673 
	C335.754456,362.029846 347.579285,352.799072 357.056915,341.173553 
	C371.132446,323.908173 381.276031,304.579346 386.391602,282.519257 
	C390.278381,265.758026 391.026459,249.012543 388.776917,232.257523 
	C386.300476,213.812286 380.508301,196.243317 370.657959,180.187561 
	C357.170380,158.203262 339.597351,140.529053 316.733704,128.326996 
	C299.586609,119.175758 281.306824,113.444557 261.959930,112.168747 
	C245.191193,111.062950 228.354935,111.955544 212.171509,117.104622 
	C193.439667,123.064522 175.828827,131.521225 161.017944,144.648621 
	C144.630859,159.173065 131.199875,176.002274 122.728394,196.559845 
	C117.078918,210.269302 113.032890,224.355087 112.157028,239.076859 
	C111.239609,254.497177 112.136711,269.887054 115.966942,285.033997 
	C121.244392,305.904053 130.752365,324.666718 144.658127,340.894958 
	C155.010345,352.976196 166.832001,363.778992 181.023178,371.434540 
	C194.087311,378.482086 207.592606,384.512878 223.090546,387.569031 
z"/>
<path fill="#000000" opacity="1.000000" stroke="none" 
	d="
M177.095795,82.869629 
	C176.679398,82.512291 176.437790,81.950760 176.196198,81.389221 
	C176.530609,81.522087 176.865005,81.654953 177.391602,82.008202 
	C177.479401,82.374207 177.375000,82.519821 177.095795,82.869629 
z"/>
<path fill="#000000" opacity="1.000000" stroke="none" 
	d="
M261.020691,61.264198 
	C263.595032,61.002441 267.559540,60.290051 268.390076,61.586067 
	C269.877655,63.907330 270.791229,68.272125 269.533752,70.249634 
	C267.987000,72.682014 263.971588,73.544571 259.989838,75.625755 
	C260.412994,69.792152 260.705841,65.755379 261.020691,61.264198 
z"/>
<path fill="#000000" opacity="1.000000" stroke="none" 
	d="
M75.207642,302.988953 
	C72.710907,300.610016 70.613876,298.241364 67.788658,295.050201 
	C73.870934,293.526306 78.274788,292.422974 82.690941,291.316528 
	C85.716858,296.740173 84.090012,300.707916 78.274521,302.032745 
	C77.359558,302.241180 76.495132,302.671478 75.207642,302.988953 
z"/>
<path fill="#000000" opacity="1.000000" stroke="none" 
	d="
M174.024323,421.027161 
	C175.740982,416.501404 177.484360,412.383942 179.223114,408.277405 
	C185.997543,410.516418 187.324890,412.990021 184.985703,418.818085 
	C183.159134,423.368958 179.666031,424.205078 174.024323,421.027161 
z"/>
<path fill="#000000" opacity="1.000000" stroke="none" 
	d="
M218.804932,424.457489 
	C217.810776,427.543091 217.156143,430.723358 215.284393,432.813843 
	C214.238876,433.981598 211.073334,433.752106 209.074066,433.272614 
	C208.439682,433.120453 208.040619,430.051697 208.316147,428.452423 
	C208.856125,425.318054 209.945724,422.278412 211.200531,417.797302 
	C213.886429,420.072876 216.261078,422.084747 218.804932,424.457489 
z"/>
<path fill="#000000" opacity="1.000000" stroke="none" 
	d="
M154.355469,97.856277 
	C153.030502,95.121468 151.652161,92.730011 151.074997,90.158714 
	C150.247879,86.473763 153.011429,85.191315 155.925797,85.062683 
	C160.392090,84.865555 161.695496,88.694748 162.853043,91.898018 
	C163.409805,93.438736 162.969070,96.707191 162.027222,97.145401 
	C159.884338,98.142441 157.152466,97.873642 154.355469,97.856277 
z"/>
<path fill="#000000" opacity="1.000000" stroke="none" 
	d="
M370.488953,116.831306 
	C366.104736,117.325592 363.261536,115.815376 363.076355,111.556076 
	C362.933380,108.268188 369.178955,102.579285 371.901947,103.021919 
	C375.025238,103.529648 377.692444,108.640541 375.923676,111.183128 
	C374.514465,113.208878 372.569092,114.861626 370.488953,116.831306 
z"/>
<path fill="#F7FEFA" opacity="1.000000" stroke="none" 
	d="
M222.739975,387.304443 
	C207.592606,384.512878 194.087311,378.482086 181.023178,371.434540 
	C166.832001,363.778992 155.010345,352.976196 144.658127,340.894958 
	C130.752365,324.666718 121.244392,305.904053 115.966942,285.033997 
	C112.136711,269.887054 111.239609,254.497177 112.157028,239.076859 
	C113.032890,224.355087 117.078918,210.269302 122.728394,196.559845 
	C131.199875,176.002274 144.630859,159.173065 161.017944,144.648621 
	C175.828827,131.521225 193.439667,123.064522 212.171509,117.104622 
	C228.354935,111.955544 245.191193,111.062950 261.959930,112.168747 
	C281.306824,113.444557 299.586609,119.175758 316.733704,128.326996 
	C339.597351,140.529053 357.170380,158.203262 370.657959,180.187561 
	C380.508301,196.243317 386.300476,213.812286 388.776917,232.257523 
	C391.026459,249.012543 390.278381,265.758026 386.391602,282.519257 
	C381.276031,304.579346 371.132446,323.908173 357.056915,341.173553 
	C347.579285,352.799072 335.754456,362.029846 322.970764,370.052673 
	C308.441986,379.170715 292.480591,384.962250 275.969788,388.020142 
	C263.915741,390.252625 251.182068,388.981384 238.752457,388.940765 
	C233.530380,388.923706 228.311096,388.052124 222.739975,387.304443 
M159.983231,271.411804 
	C189.261017,220.727234 218.538788,170.042664 248.312607,118.499390 
	C197.622757,121.623734 159.394165,144.010849 135.082642,187.614594 
	C111.856697,229.271301 113.864456,271.818176 134.672302,314.975708 
	C143.310257,300.039795 151.415497,286.024994 159.983231,271.411804 
M261.272034,383.005524 
	C282.132812,381.076202 301.656494,374.987091 319.516937,363.956482 
	C337.425720,352.895996 352.117645,338.613800 363.547760,320.198730 
	C287.837860,320.198730 213.159775,320.198730 138.481689,320.198730 
	C138.123688,320.597351 137.765686,320.995972 137.407700,321.394562 
	C145.722641,330.555420 153.727264,340.023834 162.428116,348.802185 
	C174.327988,360.808075 188.823700,368.982330 204.535492,374.988312 
	C222.508240,381.858582 241.211929,383.878754 261.272034,383.005524 
M352.020630,288.359344 
	C357.131927,296.900482 362.243225,305.441650 367.450470,314.143127 
	C416.013397,218.123856 343.840820,119.358215 254.243057,119.119446 
	C286.860779,175.368591 319.403656,231.488708 352.020630,288.359344 
M248.023743,267.507751 
	C248.023743,263.075317 248.023743,258.642883 248.023743,253.993927 
	C230.844940,253.993927 214.237061,253.993927 196.436676,253.993927 
	C196.436676,244.002670 196.436676,234.219681 196.436676,224.436707 
	C196.070969,224.466965 195.705261,224.497238 195.339569,224.527496 
	C178.338882,253.937317 161.338211,283.347137 144.367981,312.704285 
	C179.058014,312.704285 213.439804,312.704285 248.024292,312.704285 
	C248.024292,297.766296 248.024292,283.135437 248.023743,267.507751 
M219.503235,247.006775 
	C228.928940,247.006775 238.354645,247.006775 247.608917,247.006775 
	C247.608917,234.194336 247.608917,221.778732 247.608917,209.334137 
	C233.084991,209.334137 218.588074,209.334137 204.289398,209.334137 
	C204.289398,222.059906 204.289398,234.441788 204.289398,247.006790 
	C209.232849,247.006790 213.868729,247.006790 219.503235,247.006775 
M273.500427,313.007507 
	C301.509399,313.007507 329.518402,313.007507 358.199402,313.007507 
	C355.871674,309.047699 353.649200,305.872162 352.070465,302.403656 
	C350.618317,299.213226 348.348785,298.935089 345.342285,298.943542 
	C316.381348,299.025269 287.420074,298.989075 258.458893,299.002258 
	C257.027283,299.002930 255.595718,299.148071 254.282822,299.219482 
	C254.282822,303.999908 254.282822,308.402405 254.282822,313.007507 
	C260.556335,313.007507 266.528503,313.007507 273.500427,313.007507 
M254.729889,200.941254 
	C267.319580,200.941254 279.909271,200.941254 293.243530,200.941254 
	C280.199280,178.387436 267.453613,156.349854 254.050201,133.175018 
	C254.050201,156.429062 254.050201,178.341690 254.729889,200.941254 
M316.499817,276.989105 
	C295.767609,276.989105 275.035370,276.989105 254.214020,276.989105 
	C254.214020,282.211731 254.214020,286.944000 254.214020,291.844421 
	C284.797089,291.844421 315.141022,291.844421 345.903320,291.844421 
	C342.974609,286.790222 340.188477,281.982147 337.295258,276.989227 
	C330.795288,276.989227 324.147491,276.989227 316.499817,276.989105 
M248.021469,165.500000 
	C248.021469,155.164200 248.021469,144.828400 248.021469,133.596344 
	C234.711441,156.601578 221.948654,178.660965 209.189011,200.714905 
	C222.299561,200.714905 235.051804,200.714905 248.021515,200.714905 
	C248.021515,189.112900 248.021515,177.806442 248.021469,165.500000 
M322.800354,253.984451 
	C299.925262,253.984451 277.050171,253.984451 254.279114,253.984451 
	C254.279114,259.341553 254.279114,264.074493 254.279114,268.608704 
	C280.354523,268.608704 306.126678,268.608704 332.617310,268.608704 
	C329.373138,263.377563 326.508759,258.758759 322.800354,253.984451 
M263.532288,230.991837 
	C260.432648,230.991837 257.333038,230.991837 254.230026,230.991837 
	C254.230026,236.580826 254.230026,241.644272 254.230026,246.855469 
	C276.145752,246.855469 297.814362,246.855469 319.646698,246.855469 
	C317.347321,242.615723 314.938965,238.663757 313.028778,234.484116 
	C311.715698,231.611038 309.863312,230.895752 306.892975,230.924683 
	C292.770447,231.062302 278.645874,230.989639 263.532288,230.991837 
M261.560028,208.990387 
	C259.121521,208.990387 256.682983,208.990387 254.246216,208.990387 
	C254.246216,214.271759 254.246216,219.010208 254.246216,223.821381 
	C271.591797,223.821381 288.668365,223.821381 306.421967,223.821381 
	C304.162048,219.791229 301.994904,216.263290 300.170807,212.566101 
	C298.734283,209.654465 296.736786,208.833771 293.525970,208.906570 
	C283.203217,209.140686 272.871765,208.991806 261.560028,208.990387 
z"/>
<path fill="#000000" opacity="1.000000" stroke="none" 
	d="
M159.751984,271.710999 
	C151.415497,286.024994 143.310257,300.039795 134.672302,314.975708 
	C113.864456,271.818176 111.856697,229.271301 135.082642,187.614594 
	C159.394165,144.010849 197.622757,121.623734 248.312607,118.499390 
	C218.538788,170.042664 189.261017,220.727234 159.751984,271.710999 
z"/>
<path fill="#000000" opacity="1.000000" stroke="none" 
	d="
M260.793457,383.005890 
	C241.211929,383.878754 222.508240,381.858582 204.535492,374.988312 
	C188.823700,368.982330 174.327988,360.808075 162.428116,348.802185 
	C153.727264,340.023834 145.722641,330.555420 137.407700,321.394562 
	C137.765686,320.995972 138.123688,320.597351 138.481689,320.198730 
	C213.159775,320.198730 287.837860,320.198730 363.547760,320.198730 
	C352.117645,338.613800 337.425720,352.895996 319.516937,363.956482 
	C301.656494,374.987091 282.132812,381.076202 260.793457,383.005890 
z"/>
<path fill="#000000" opacity="1.000000" stroke="none" 
	d="
M351.983582,287.984070 
	C319.403656,231.488708 286.860779,175.368591 254.243057,119.119446 
	C343.840820,119.358215 416.013397,218.123856 367.450470,314.143127 
	C362.243225,305.441650 357.131927,296.900482 351.983582,287.984070 
z"/>
<path fill="#000000" opacity="1.000000" stroke="none" 
	d="
M248.024017,268.006165 
	C248.024292,283.135437 248.024292,297.766296 248.024292,312.704285 
	C213.439804,312.704285 179.058014,312.704285 144.367981,312.704285 
	C161.338211,283.347137 178.338882,253.937317 195.339569,224.527496 
	C195.705261,224.497238 196.070969,224.466965 196.436676,224.436707 
	C196.436676,234.219681 196.436676,244.002670 196.436676,253.993927 
	C214.237061,253.993927 230.844940,253.993927 248.023743,253.993927 
	C248.023743,258.642883 248.023743,263.075317 248.024017,268.006165 
z"/>
<path fill="#000000" opacity="1.000000" stroke="none" 
	d="
M219.003922,247.006775 
	C213.868729,247.006790 209.232849,247.006790 204.289398,247.006790 
	C204.289398,234.441788 204.289398,222.059906 204.289398,209.334137 
	C218.588074,209.334137 233.084991,209.334137 247.608917,209.334137 
	C247.608917,221.778732 247.608917,234.194336 247.608917,247.006775 
	C238.354645,247.006775 228.928940,247.006775 219.003922,247.006775 
z"/>
<path fill="#000000" opacity="1.000000" stroke="none" 
	d="
M273.000549,313.007507 
	C266.528503,313.007507 260.556335,313.007507 254.282822,313.007507 
	C254.282822,308.402405 254.282822,303.999908 254.282822,299.219482 
	C255.595718,299.148071 257.027283,299.002930 258.458893,299.002258 
	C287.420074,298.989075 316.381348,299.025269 345.342285,298.943542 
	C348.348785,298.935089 350.618317,299.213226 352.070465,302.403656 
	C353.649200,305.872162 355.871674,309.047699 358.199402,313.007507 
	C329.518402,313.007507 301.509399,313.007507 273.000549,313.007507 
z"/>
<path fill="#000000" opacity="1.000000" stroke="none" 
	d="
M254.390045,200.597778 
	C254.050201,178.341690 254.050201,156.429062 254.050201,133.175018 
	C267.453613,156.349854 280.199280,178.387436 293.243530,200.941254 
	C279.909271,200.941254 267.319580,200.941254 254.390045,200.597778 
z"/>
<path fill="#000000" opacity="1.000000" stroke="none" 
	d="
M316.999756,276.989166 
	C324.147491,276.989227 330.795288,276.989227 337.295258,276.989227 
	C340.188477,281.982147 342.974609,286.790222 345.903320,291.844421 
	C315.141022,291.844421 284.797089,291.844421 254.214020,291.844421 
	C254.214020,286.944000 254.214020,282.211731 254.214020,276.989105 
	C275.035370,276.989105 295.767609,276.989105 316.999756,276.989166 
z"/>
<path fill="#000000" opacity="1.000000" stroke="none" 
	d="
M248.021484,166.000000 
	C248.021515,177.806442 248.021515,189.112900 248.021515,200.714905 
	C235.051804,200.714905 222.299561,200.714905 209.189011,200.714905 
	C221.948654,178.660965 234.711441,156.601578 248.021469,133.596344 
	C248.021469,144.828400 248.021469,155.164200 248.021484,166.000000 
z"/>
<path fill="#000000" opacity="1.000000" stroke="none" 
	d="
M323.222351,254.062195 
	C326.508759,258.758759 329.373138,263.377563 332.617310,268.608704 
	C306.126678,268.608704 280.354523,268.608704 254.279114,268.608704 
	C254.279114,264.074493 254.279114,259.341553 254.279114,253.984451 
	C277.050171,253.984451 299.925262,253.984451 323.222351,254.062195 
z"/>
<path fill="#000000" opacity="1.000000" stroke="none" 
	d="
M264.027161,230.991821 
	C278.645874,230.989639 292.770447,231.062302 306.892975,230.924683 
	C309.863312,230.895752 311.715698,231.611038 313.028778,234.484116 
	C314.938965,238.663757 317.347321,242.615723 319.646698,246.855469 
	C297.814362,246.855469 276.145752,246.855469 254.230026,246.855469 
	C254.230026,241.644272 254.230026,236.580826 254.230026,230.991837 
	C257.333038,230.991837 260.432648,230.991837 264.027161,230.991821 
z"/>
<path fill="#000000" opacity="1.000000" stroke="none" 
	d="
M262.051849,208.990509 
	C272.871765,208.991806 283.203217,209.140686 293.525970,208.906570 
	C296.736786,208.833771 298.734283,209.654465 300.170807,212.566101 
	C301.994904,216.263290 304.162048,219.791229 306.421967,223.821381 
	C288.668365,223.821381 271.591797,223.821381 254.246216,223.821381 
	C254.246216,219.010208 254.246216,214.271759 254.246216,208.990387 
	C256.682983,208.990387 259.121521,208.990387 262.051849,208.990509 
z"/>
</svg>